<svg width="16" height="13" viewBox="0 0 16 13" fill="none" xmlns="http://www.w3.org/2000/svg">
<path d="M13.74 5.78253H0.72C0.32 5.78253 0 6.10253 0 6.50253C0 6.90253 0.32 7.22253 0.72 7.22253H13.74C14.14 7.22253 14.46 6.90253 14.46 6.50253C14.46 6.10253 14.14 5.78253 13.74 5.78253Z" fill="black"/>
<path d="M9.24986 1.2325L13.7399 5.7225C13.9399 5.9325 14.0499 6.2125 14.0499 6.5025C14.0499 6.7925 13.9399 7.0725 13.7399 7.2825L9.24986 11.7725C8.97986 12.0525 8.97986 12.5025 9.24986 12.7825C9.52986 13.0625 9.97986 13.0625 10.2599 12.7825L14.7499 8.2925C15.2199 7.8025 15.4699 7.1625 15.4699 6.4825C15.4699 5.8025 15.2099 5.1625 14.7499 4.6725L10.2699 0.2025C9.98986 -0.0675 9.53986 -0.0675 9.25986 0.2025C8.97986 0.4825 8.97986 0.9325 9.25986 1.2125L9.24986 1.2325Z" fill="black"/>
</svg>
