<?xml version="1.0" encoding="UTF-8"?>
<svg xmlns="http://www.w3.org/2000/svg" version="1.1" viewBox="0 0 15 17">
  <defs>
    <style>
      .cls-1 {
        fill: #fff;
      }
    </style>
  </defs>
  <!-- Generator: Adobe Illustrator 28.7.1, SVG Export Plug-In . SVG Version: 1.2.0 Build 142)  -->
  <g>
    <g id="Layer_1">
      <path class="cls-1" d="M6.8,2v13.6c0,.4.3.8.8.8s.8-.3.8-.8V2c0-.4-.3-.8-.8-.8s-.8.3-.8.8Z"/>
      <path class="cls-1" d="M2,6.7L6.7,2c.2-.2.5-.3.8-.3s.6.1.8.3l4.7,4.7c.3.3.8.3,1.1,0,.3-.3.3-.8,0-1.1L9.4,1c-.5-.5-1.2-.8-1.9-.8s-1.4.3-1.9.8L1,5.6c-.3.3-.3.8,0,1.1.3.3.8.3,1.1,0h0Z"/>
    </g>
  </g>
</svg>