<?xml version="1.0" encoding="UTF-8"?>
<svg xmlns="http://www.w3.org/2000/svg" version="1.1" viewBox="0 0 16 13">
  <defs>
    <style>
      .cls-1 {
        fill: #fff;
      }
    </style>
  </defs>
  <!-- Generator: Adobe Illustrator 28.7.1, SVG Export Plug-In . SVG Version: 1.2.0 Build 142)  -->
  <g>
    <g id="Layer_1">
      <path class="cls-1" d="M13.7,5.8H.7c-.4,0-.7.3-.7.7s.3.7.7.7h13c.4,0,.7-.3.7-.7s-.3-.7-.7-.7Z"/>
      <path class="cls-1" d="M9.2,1.2l4.5,4.5c.2.2.3.5.3.8s-.1.6-.3.8l-4.5,4.5c-.3.3-.3.7,0,1,.3.3.7.3,1,0l4.5-4.5c.5-.5.7-1.1.7-1.8s-.3-1.3-.7-1.8L10.3.2c-.3-.3-.7-.3-1,0-.3.3-.3.7,0,1h0Z"/>
    </g>
  </g>
</svg>