<svg width="15" height="17" viewBox="0 0 15 17" fill="none" xmlns="http://www.w3.org/2000/svg">
<path d="M6.77344 2.02051L6.77344 15.583C6.77344 15.9997 7.10677 16.333 7.52344 16.333C7.9401 16.333 8.27344 15.9997 8.27344 15.583L8.27344 2.02051C8.27344 1.60384 7.9401 1.27051 7.52344 1.27051C7.10677 1.27051 6.77344 1.60384 6.77344 2.02051Z" fill="black"/>
<path d="M2.03385 6.69775L6.71094 2.02067C6.92969 1.81234 7.22135 1.69775 7.52344 1.69775C7.82552 1.69775 8.11719 1.81234 8.33594 2.02067L13.013 6.69775C13.3047 6.979 13.7734 6.979 14.0651 6.69775C14.3568 6.40609 14.3568 5.93734 14.0651 5.64567L9.38802 0.968587C8.8776 0.479003 8.21094 0.218586 7.5026 0.218586C6.79427 0.218586 6.1276 0.48942 5.61719 0.968587L0.960937 5.63525C0.679687 5.92692 0.679687 6.39567 0.960938 6.68734C1.2526 6.979 1.72135 6.979 2.01302 6.68734L2.03385 6.69775Z" fill="black"/>
</svg>
