<svg width="44" height="53" viewBox="0 0 44 53" fill="none" xmlns="http://www.w3.org/2000/svg">
<path d="M23.2852 36.1294H20.5583V33.4026H23.2852V36.1294ZM29.3056 39.8979L30.4086 44.3252H13.4043L14.5073 39.8979C14.6605 39.2852 15.212 38.8562 15.84 38.8562H27.9728C28.6009 38.8562 29.1524 39.2852 29.3056 39.8826M32.8443 49.1048C32.8443 49.4877 32.5379 49.7941 32.155 49.7941H11.6579C11.2749 49.7941 10.9685 49.4877 10.9685 49.1048V47.7413C10.9685 47.3737 11.2749 47.052 11.6579 47.052H32.155C32.5379 47.052 32.8443 47.3584 32.8443 47.7413V49.1048ZM23.2852 25.1915C23.2852 23.6902 24.5107 22.4647 26.012 22.4647H35.5711V25.1915H23.2698H23.2852ZM8.24172 22.4647H17.8009C19.3022 22.4647 20.5277 23.6902 20.5277 25.1915H8.22641V22.4647H8.24172ZM8.24172 3.33107H17.8009C19.3022 3.33107 20.5277 4.55661 20.5277 6.05789V20.4885C19.7158 20.0137 18.7966 19.7226 17.8009 19.7226H8.24172V3.31574V3.33107ZM26.012 3.33107H35.5711V19.7379H26.012C25.0162 19.7379 24.0818 20.029 23.2852 20.5039V6.0732C23.2852 4.57192 24.5107 3.34638 26.012 3.34638M42.4035 6.05789H38.2979V1.95233C38.2979 1.20169 37.6852 0.588928 36.9345 0.588928H25.9966C24.3575 0.588928 22.9022 1.30894 21.8911 2.44256C20.8954 1.30894 19.4247 0.588928 17.7856 0.588928H6.84767C6.09703 0.588928 5.48427 1.20169 5.48427 1.95233V6.05789H1.37874C0.6281 6.05789 0.0153341 6.67065 0.0153341 7.42129V14.2536C0.0153341 15.0043 0.6281 15.617 1.37874 15.617C2.12938 15.617 2.74215 15.0043 2.74215 14.2536V8.7847H5.46896V26.5549C5.46896 27.3056 6.08172 27.9184 6.83236 27.9184H36.9039C37.6546 27.9184 38.2673 27.3056 38.2673 26.5549V8.7847H40.9941V30.6452H2.72681V25.1762C2.72681 24.4256 2.11405 23.8128 1.36341 23.8128C0.612766 23.8128 0 24.4256 0 25.1762V32.0086C0 32.7592 0.612766 33.372 1.36341 33.372H17.7703V36.0988H15.8094C13.9251 36.0988 12.286 37.3703 11.8264 39.2086L10.509 44.509C9.17619 44.9686 8.21108 46.2248 8.21108 47.726V49.0894C8.21108 50.9737 9.74301 52.5056 11.6273 52.5056H32.1243C34.0086 52.5056 35.5405 50.9737 35.5405 49.0894V47.726C35.5405 46.2401 34.5754 44.9839 33.2426 44.509L31.9252 39.2086C31.4656 37.3856 29.8264 36.0988 27.9422 36.0988H25.9813V33.372H42.3882C43.1388 33.372 43.7516 32.7592 43.7516 32.0086V7.40596C43.7516 6.65532 43.1388 6.04255 42.3882 6.04255" fill="#EBE42D"/>
<path d="M1.40833 21.1013C2.15897 21.1013 2.77176 20.4885 2.77176 19.7379C2.77176 18.9872 2.15897 18.3745 1.40833 18.3745C0.657688 18.3745 0.0449219 18.9872 0.0449219 19.7379C0.0449219 20.4885 0.657688 21.1013 1.40833 21.1013Z" fill="#EBE42D"/>
</svg>
