<svg width="85" height="68" viewBox="0 0 85 68" fill="none" xmlns="http://www.w3.org/2000/svg">
<path d="M64.4858 15.7835H68.7686C69.9583 15.7835 70.91 14.8318 70.91 13.6421C70.91 12.4524 69.9583 11.5007 68.7686 11.5007H67.2419V9.97399C67.2419 8.78434 66.2902 7.83261 65.1005 7.83261C63.9108 7.83261 62.9591 8.78434 62.9591 9.97399V11.7585C60.8375 12.4128 59.291 14.3757 59.291 16.6956C59.291 19.5507 61.6108 21.8904 64.4858 21.8904H65.7151C66.2307 21.8904 66.6272 22.3068 66.6272 22.8025C66.6272 23.2982 66.2108 23.7145 65.7151 23.7145H61.4324C60.2625 23.7145 59.291 24.6663 59.291 25.8559C59.291 27.0456 60.2427 27.9973 61.4324 27.9973H62.9591V29.524C62.9591 30.7137 63.9108 31.6654 65.1005 31.6654C66.2902 31.6654 67.2419 30.7137 67.2419 29.524V27.7396C69.3634 27.0852 70.91 25.1223 70.91 22.8025C70.91 19.9473 68.5703 17.6076 65.7151 17.6076H64.4858C63.9703 17.6076 63.5737 17.1913 63.5737 16.6956C63.5737 16.1999 63.9902 15.7835 64.4858 15.7835Z" fill="#EBE42D"/>
<path d="M81.6759 9.95417C81.0612 8.94296 79.7526 8.60589 78.7414 9.22055C77.7302 9.81538 77.3932 11.1438 78.0078 12.155C79.3561 14.4154 80.0699 17.0525 80.0699 19.749C80.0699 27.9973 73.3483 34.7189 65.1 34.7189C56.8517 34.7189 50.1301 28.0171 50.1301 19.749C50.1301 11.4809 56.8319 4.77916 65.1 4.77916C67.7966 4.77916 70.4336 5.49295 72.694 6.84123C73.7052 7.43606 75.0138 7.11882 75.6285 6.08778C76.2431 5.07657 75.9061 3.76795 74.8949 3.15329C71.9604 1.40846 68.5897 0.476562 65.1 0.476562C54.4922 0.476562 45.8672 9.10158 45.8672 19.7094C45.8672 30.3171 54.4922 38.962 65.1 38.962C75.7078 38.962 84.3328 30.337 84.3328 19.7094C84.3328 16.2395 83.4009 12.849 81.6561 9.91452" fill="#EBE42D"/>
<path d="M19.1607 45.3663L16.6228 38.4465C20.8857 36.4241 24.4746 33.1525 26.8737 29.0878C28.6384 33.906 31.2556 41.1232 33.0203 45.9215C28.5789 44.3551 23.7409 44.1568 19.1607 45.3663ZM9.08832 48.9155C7.24435 49.5896 5.20207 48.6379 4.52793 46.7939C3.85379 44.9698 4.82536 42.8879 6.6495 42.2336L12.6771 40.0327L15.1159 46.7344L9.08832 48.9353V48.9155ZM45.4323 42.5508C45.016 41.4405 43.7867 40.8655 42.6763 41.2818C41.566 41.6982 41.0108 42.9275 41.4073 44.0181L42.8548 47.9241C43.2712 49.0543 42.6565 50.2638 41.5461 50.6801C40.4556 51.0965 39.2065 50.462 38.8298 49.4112C38.8298 49.3913 29.0548 22.6042 29.0548 22.6042C28.6582 21.5137 29.2332 20.2844 30.3237 19.8878C31.434 19.5111 32.6832 20.0861 33.0798 21.1766L38.4729 35.968C38.8694 37.0784 40.0987 37.6336 41.209 37.2568C42.3194 36.8603 42.8944 35.631 42.478 34.5206L37.0849 19.7292C35.8953 16.418 32.2073 14.693 28.8565 15.8826C25.8228 17.0128 24.1573 20.2051 24.8116 23.2585C22.9676 28.7904 18.6452 33.2516 13.1728 35.2542L5.14264 38.1887C1.13746 39.656 -1.00396 44.2163 0.463287 48.2413C1.6926 51.612 5.22191 53.6543 8.69174 53.2974L10.3573 56.2319C10.7538 56.9258 11.4676 57.3224 12.2211 57.3224C12.578 57.3224 12.9349 57.2431 13.2719 57.0448C14.303 56.4698 14.6599 55.1612 14.0849 54.1301L12.8952 52.0482L16.8607 50.6008L20.2116 56.5491C20.39 56.8862 20.6677 57.1638 21.0047 57.3422L25.3668 59.8802C25.8823 60.1776 25.8625 60.9707 25.2875 61.1888L19.8547 63.1517C19.5375 63.2509 19.1806 63.1517 19.0021 62.8147L18.2883 61.5655C17.6935 60.5345 16.4047 60.1776 15.3736 60.7724C14.3426 61.3474 13.9858 62.656 14.5608 63.6871L15.2745 64.9362C16.4444 67.0181 19.0616 68.0095 21.3219 67.1966L26.7349 65.2336C30.6409 63.806 31.0772 58.2939 27.5082 56.212L23.6418 53.9715L21.0047 49.312C25.8229 48.2612 30.9582 49.0939 35.1815 51.6913C36.6487 54.3483 40.0988 55.756 42.9936 54.725C46.285 53.5551 48.0695 49.7879 46.8401 46.4965L45.3927 42.5706" fill="#EBE42D"/>
</svg>
