<svg width="67" height="68" viewBox="0 0 67 68" fill="none" xmlns="http://www.w3.org/2000/svg">
<path d="M64.8363 9.18084C64.0036 9.04205 63.1114 9.06187 62.457 9.06187C60.276 9.06187 58.1346 8.36791 56.4096 7.09894C54.6251 5.79032 53.2967 4.02566 52.6226 1.96358C52.3251 1.09117 51.5122 0.496338 50.6001 0.496338H16.3975C15.4854 0.496338 14.6526 1.09117 14.375 1.94376C12.9474 6.18687 9.00176 9.04205 4.54054 9.04205C2.8552 9.04205 0 8.68515 0 11.1834V27.7792C0 36.0869 2.51812 44.0576 7.25692 50.8189C7.93106 51.7904 9.27934 52.0284 10.2311 51.3344C11.2026 50.6602 11.4405 49.312 10.7466 48.3602C6.50346 42.3128 4.26296 35.1947 4.26296 27.7792V13.3248H4.5207C10.2905 13.3248 15.4656 9.95412 17.8251 4.77911H49.1329C50.1837 7.05928 51.8096 9.04205 53.8717 10.5489C56.3105 12.3533 59.3441 13.3248 62.4372 13.3248H62.695V27.7792C62.695 45.0689 50.4217 59.8999 33.4691 63.1715C26.9854 61.9223 20.9776 58.9085 16.0604 54.4473C15.188 53.6542 13.8397 53.7137 13.0466 54.5861C12.2535 55.4585 12.313 56.8068 13.1854 57.5999C18.7768 62.6956 25.657 66.106 33.0923 67.4543C33.3501 67.4939 33.6078 67.4939 33.8656 67.4543C53.0587 63.9646 66.9777 47.2697 66.9777 27.7792V11.1834C66.9777 9.87481 65.9665 9.35929 64.8165 9.16101" fill="#EBE42D"/>
<path d="M50.0054 42.2732C49.3709 43.2844 49.6881 44.593 50.6795 45.2275C51.6709 45.862 52.9994 45.5447 53.614 44.5533C56.7468 39.5369 58.4123 33.7473 58.4123 27.799V18.8567C58.4123 17.9248 57.7977 17.0921 56.8856 16.8145C53.0787 15.6645 49.6287 13.2257 47.2097 9.95411C46.8131 9.41877 46.1787 9.0817 45.4847 9.0817H21.414C20.7398 9.0817 20.1053 9.39894 19.689 9.95411C17.27 13.2257 13.8398 15.6645 10.0131 16.8145C9.12082 17.0921 8.48633 17.9248 8.48633 18.8567V27.799C8.48633 42.5904 18.5389 55.2999 32.9338 58.7301C33.2312 58.8094 33.6079 58.8094 33.9252 58.7301C39.0011 57.5206 43.7399 55.0421 47.6261 51.612C48.5183 50.8189 48.5976 49.4706 47.8045 48.5982C47.0114 47.7059 45.6631 47.6266 44.7907 48.4197C41.5192 51.3146 37.7123 53.3568 33.4295 54.4473C21.2355 51.3146 12.7691 40.4292 12.7691 27.799V20.3834C16.5165 18.9559 19.8872 16.4972 22.445 13.3645H44.414C46.9916 16.5171 50.3425 18.9559 54.0899 20.3834V27.799C54.0899 32.9343 52.6623 37.9507 49.9459 42.293" fill="#EBE42D"/>
<path d="M33.4895 33.2913C37.8714 33.2913 41.5396 36.3447 42.5111 40.4292H24.4878C25.4594 36.3447 29.1275 33.2913 33.5094 33.2913M29.9404 25.4395C29.9404 23.4766 31.5465 21.8706 33.5094 21.8706C35.4723 21.8706 37.0783 23.4766 37.0783 25.4395C37.0783 27.4025 35.4723 29.0085 33.5094 29.0085C31.5465 29.0085 29.9404 27.4025 29.9404 25.4395ZM19.9473 42.5508C19.9473 43.7404 20.899 44.6922 22.0887 44.6922H44.8904C46.0801 44.6922 47.0318 43.7404 47.0318 42.5508C47.0318 37.237 43.9189 32.6766 39.4577 30.4559C40.6077 29.0878 41.3214 27.3628 41.3214 25.4395C41.3214 21.1171 37.812 17.6076 33.4895 17.6076C29.1671 17.6076 25.6576 21.1171 25.6576 25.4395C25.6576 27.3628 26.3714 29.0878 27.5214 30.4559C23.0602 32.6766 19.9473 37.237 19.9473 42.5508Z" fill="#EBE42D"/>
</svg>
