<svg width="52" height="52" viewBox="0 0 52 52" fill="none" xmlns="http://www.w3.org/2000/svg">
<path d="M14.5721 28.5269H11.6309C10.9415 28.5269 10.3747 29.0937 10.3747 29.7984C10.3747 30.5031 10.9415 31.0699 11.6309 31.0699H12.887V32.3414C12.887 33.046 13.4539 33.6129 14.1432 33.6129C14.8326 33.6129 15.3994 33.046 15.3994 32.3414V30.9473C16.8547 30.5643 17.9271 29.2469 17.9271 27.669C17.9271 25.8001 16.4258 24.2835 14.5568 24.2835H13.7143C13.2547 24.2835 12.8717 23.9005 12.8717 23.4409C12.8717 22.9814 13.2547 22.5984 13.7143 22.5984H16.6556C17.3449 22.5984 17.9117 22.0316 17.9117 21.3269C17.9117 20.6222 17.3449 20.0554 16.6556 20.0554H15.3994V18.7839C15.3994 18.0792 14.8326 17.5124 14.1432 17.5124C13.4539 17.5124 12.887 18.0792 12.887 18.7839V20.1779C11.4317 20.5609 10.3594 21.8784 10.3594 23.4562C10.3594 25.3252 11.876 26.8418 13.7296 26.8418H14.5721C15.0317 26.8418 15.4147 27.2248 15.4147 27.6843C15.4147 28.1439 15.0317 28.5269 14.5721 28.5269Z" fill="#EBE42D"/>
<path d="M14.5721 28.5269H11.6309C10.9415 28.5269 10.3747 29.0937 10.3747 29.7984C10.3747 30.5031 10.9415 31.0699 11.6309 31.0699H12.887V32.3414C12.887 33.046 13.4539 33.6129 14.1432 33.6129C14.8326 33.6129 15.3994 33.046 15.3994 32.3414V30.9473C16.8547 30.5643 17.9271 29.2469 17.9271 27.669C17.9271 25.8001 16.4258 24.2835 14.5568 24.2835H13.7143C13.2547 24.2835 12.8717 23.9005 12.8717 23.4409C12.8717 22.9814 13.2547 22.5984 13.7143 22.5984H16.6556C17.3449 22.5984 17.9117 22.0316 17.9117 21.3269C17.9117 20.6222 17.3449 20.0554 16.6556 20.0554H15.3994V18.7839C15.3994 18.0792 14.8326 17.5124 14.1432 17.5124C13.4539 17.5124 12.887 18.0792 12.887 18.7839V20.1779C11.4317 20.5609 10.3594 21.8784 10.3594 23.4562C10.3594 25.3252 11.876 26.8418 13.7296 26.8418H14.5721C15.0317 26.8418 15.4147 27.2248 15.4147 27.6843C15.4147 28.1439 15.0317 28.5269 14.5721 28.5269Z" stroke="#EBE42D" stroke-width="0.666563" stroke-miterlimit="10"/>
<path d="M47.7541 44.3822C46.9422 43.3558 45.9005 42.5439 44.7056 42.0231C45.0579 41.4409 45.2724 40.7669 45.2724 40.0469C45.2724 37.9329 43.5567 36.2171 41.4426 36.2171C39.3286 36.2171 37.6128 37.9329 37.6128 40.0469C37.6128 40.7669 37.8273 41.4409 38.1796 42.0231C37.0001 42.5439 35.9584 43.3558 35.1311 44.3822C34.549 43.3405 34.1967 42.1609 34.1967 40.8895C34.1967 36.8912 37.4443 33.6435 41.4426 33.6435C45.4409 33.6435 48.6886 36.8912 48.6886 40.8895C48.6886 42.1609 48.3363 43.3405 47.7541 44.3822ZM40.1711 40.0469C40.1711 39.3422 40.7379 38.7754 41.4426 38.7754C42.1473 38.7754 42.7141 39.3575 42.7141 40.0469C42.7141 40.7363 42.1473 41.3184 41.4426 41.3184C40.7379 41.3184 40.1711 40.7516 40.1711 40.0469ZM36.8162 46.4197C37.812 44.8571 39.5431 43.8767 41.458 43.8767C43.3728 43.8767 45.0886 44.8571 46.0844 46.4197C44.8282 47.4767 43.2197 48.1354 41.458 48.1354C39.6962 48.1354 38.0877 47.4767 36.8162 46.4197ZM41.4426 13.2077C43.3422 13.2077 45.0733 14.1881 46.069 15.7507C44.8128 16.8077 43.2043 17.4664 41.4426 17.4664C39.6809 17.4664 38.0724 16.8077 36.8009 15.7507C37.7967 14.1881 39.5277 13.2077 41.4426 13.2077ZM40.1711 9.3779C40.1711 8.67322 40.7379 8.10641 41.4426 8.10641C42.1473 8.10641 42.7141 8.67322 42.7141 9.3779C42.7141 10.0826 42.1473 10.6647 41.4426 10.6647C40.7379 10.6647 40.1711 10.0979 40.1711 9.3779ZM41.4426 31.1005C38.2409 31.1005 35.4069 32.6477 33.6145 35.0375L26.2613 30.886C26.9813 29.2469 27.3949 27.4545 27.3949 25.5549C27.3949 23.6554 26.9813 21.863 26.2613 20.2239L33.6145 16.0724C35.4069 18.4469 38.2409 20.0094 41.4426 20.0094C46.8503 20.0094 51.2469 15.6128 51.2469 10.2052C51.2469 8.61196 50.8639 7.03407 50.1286 5.67066C49.7916 5.04258 49.0256 4.8128 48.3975 5.14982C47.7695 5.48684 47.5397 6.25281 47.8767 6.88089C48.4129 7.87664 48.6886 9.04088 48.6886 10.2205C48.6886 11.492 48.3363 12.6715 47.7541 13.7132C46.9422 12.6868 45.9005 11.8749 44.7056 11.3541C45.0579 10.772 45.2724 10.0979 45.2724 9.3779C45.2724 7.26386 43.5567 5.54811 41.4426 5.54811C39.3286 5.54811 37.6128 7.26386 37.6128 9.3779C37.6128 10.1132 37.8273 10.772 38.1796 11.3541C37.0001 11.8749 35.9584 12.6868 35.1311 13.7132C34.549 12.6715 34.1967 11.492 34.1967 10.2205C34.1967 6.22216 37.4443 2.9745 41.4426 2.9745C42.6222 2.9745 43.7712 3.25024 44.7669 3.78641C45.395 4.12343 46.1609 3.87833 46.498 3.26557C46.835 2.63748 46.6052 1.87151 45.9771 1.53449C44.6137 0.799172 43.0358 0.416199 41.4426 0.416199C36.035 0.416199 31.6384 4.81279 31.6384 10.2205C31.6384 11.5073 31.8988 12.7328 32.343 13.8664L24.9898 18.0179C22.6 14.6017 18.6477 12.3652 14.1745 12.3652C11.6162 12.3652 9.16513 13.0852 7.05108 14.4639C6.45363 14.8469 6.30043 15.6435 6.68341 16.2409C7.06639 16.8384 7.863 17.0069 8.46044 16.6086C10.1456 15.5056 12.137 14.9235 14.1898 14.9235C20.0571 14.9235 24.8366 19.703 24.8366 25.5703C24.8366 31.4375 20.0571 36.2171 14.1898 36.2171C8.32257 36.2171 3.54299 31.4375 3.54299 25.5703C3.54299 23.5175 4.12512 21.5413 5.2281 19.8409C5.61108 19.2435 5.44257 18.4622 4.86044 18.0639C4.27831 17.6809 3.48171 17.8494 3.09873 18.4315C1.72001 20.5456 1 22.9966 1 25.5549C1 32.8469 6.92853 38.7601 14.2051 38.7601C18.6783 38.7601 22.6307 36.5235 25.0205 33.1073L32.3737 37.2588C31.9141 38.3924 31.669 39.618 31.669 40.9048C31.669 46.3124 36.0656 50.7091 41.4733 50.7091C46.8809 50.7091 51.2775 46.3124 51.2775 40.9048C51.2775 35.4971 46.8809 31.1005 41.4733 31.1005" fill="#EBE42D"/>
<path d="M47.7541 44.3822C46.9422 43.3558 45.9005 42.5439 44.7056 42.0231C45.058 41.4409 45.2724 40.7669 45.2724 40.0469C45.2724 37.9329 43.5567 36.2171 41.4426 36.2171C39.3286 36.2171 37.6128 37.9329 37.6128 40.0469C37.6128 40.7669 37.8273 41.4409 38.1796 42.0231C37.0001 42.5439 35.9584 43.3558 35.1311 44.3822C34.549 43.3405 34.1967 42.1609 34.1967 40.8895C34.1967 36.8912 37.4443 33.6435 41.4426 33.6435C45.4409 33.6435 48.6886 36.8912 48.6886 40.8895C48.6886 42.1609 48.3363 43.3405 47.7541 44.3822ZM40.1711 40.0469C40.1711 39.3422 40.7379 38.7754 41.4426 38.7754C42.1473 38.7754 42.7141 39.3575 42.7141 40.0469C42.7141 40.7363 42.1473 41.3184 41.4426 41.3184C40.7379 41.3184 40.1711 40.7516 40.1711 40.0469ZM36.8162 46.4197C37.812 44.8571 39.5431 43.8767 41.458 43.8767C43.3728 43.8767 45.0886 44.8571 46.0843 46.4197C44.8282 47.4767 43.2197 48.1354 41.458 48.1354C39.6962 48.1354 38.0877 47.4767 36.8162 46.4197ZM41.4426 13.2077C43.3422 13.2077 45.0733 14.1881 46.069 15.7507C44.8128 16.8077 43.2043 17.4664 41.4426 17.4664C39.6809 17.4664 38.0724 16.8077 36.8009 15.7507C37.7967 14.1881 39.5277 13.2077 41.4426 13.2077ZM40.1711 9.3779C40.1711 8.67322 40.7379 8.10641 41.4426 8.10641C42.1473 8.10641 42.7141 8.67322 42.7141 9.3779C42.7141 10.0826 42.1473 10.6647 41.4426 10.6647C40.7379 10.6647 40.1711 10.0979 40.1711 9.3779ZM41.4426 31.1005C38.2409 31.1005 35.4069 32.6477 33.6145 35.0375L26.2613 30.886C26.9813 29.2469 27.3949 27.4545 27.3949 25.5549C27.3949 23.6554 26.9813 21.863 26.2613 20.2239L33.6145 16.0724C35.4069 18.4469 38.2409 20.0094 41.4426 20.0094C46.8503 20.0094 51.2469 15.6128 51.2469 10.2052C51.2469 8.61196 50.8639 7.03407 50.1286 5.67066C49.7916 5.04258 49.0256 4.8128 48.3975 5.14982C47.7695 5.48684 47.5397 6.25281 47.8767 6.88089C48.4129 7.87664 48.6886 9.04089 48.6886 10.2205C48.6886 11.492 48.3363 12.6715 47.7541 13.7132C46.9422 12.6868 45.9005 11.8749 44.7056 11.3541C45.058 10.772 45.2724 10.0979 45.2724 9.3779C45.2724 7.26386 43.5567 5.54811 41.4426 5.54811C39.3286 5.54811 37.6128 7.26386 37.6128 9.3779C37.6128 10.1132 37.8273 10.772 38.1796 11.3541C37.0001 11.8749 35.9584 12.6868 35.1311 13.7132C34.549 12.6715 34.1967 11.492 34.1967 10.2205C34.1967 6.22216 37.4443 2.9745 41.4426 2.9745C42.6222 2.9745 43.7712 3.25024 44.7669 3.78641C45.395 4.12343 46.1609 3.87833 46.498 3.26557C46.835 2.63748 46.6052 1.87151 45.9771 1.53449C44.6137 0.799172 43.0358 0.416199 41.4426 0.416199C36.035 0.416199 31.6384 4.81279 31.6384 10.2205C31.6384 11.5073 31.8988 12.7328 32.343 13.8664L24.9898 18.0179C22.6 14.6017 18.6477 12.3652 14.1745 12.3652C11.6162 12.3652 9.16513 13.0852 7.05108 14.4639C6.45363 14.8469 6.30043 15.6435 6.68341 16.2409C7.06639 16.8384 7.863 17.0069 8.46044 16.6086C10.1456 15.5056 12.137 14.9235 14.1898 14.9235C20.0571 14.9235 24.8366 19.703 24.8366 25.5703C24.8366 31.4375 20.0571 36.2171 14.1898 36.2171C8.32257 36.2171 3.54299 31.4375 3.54299 25.5703C3.54299 23.5175 4.12512 21.5413 5.2281 19.8409C5.61108 19.2435 5.44257 18.4622 4.86044 18.0639C4.27831 17.6809 3.48171 17.8494 3.09873 18.4315C1.72001 20.5456 1 22.9966 1 25.5549C1 32.8469 6.92853 38.7601 14.2051 38.7601C18.6783 38.7601 22.6307 36.5235 25.0205 33.1073L32.3737 37.2588C31.9141 38.3924 31.669 39.618 31.669 40.9048C31.669 46.3124 36.0656 50.7091 41.4733 50.7091C46.8809 50.7091 51.2775 46.3124 51.2775 40.9048C51.2775 35.4971 46.8809 31.1005 41.4733 31.1005H41.4426Z" stroke="#EBE42D" stroke-width="0.666563" stroke-miterlimit="10"/>
</svg>
