<svg width="62" height="84" viewBox="0 0 62 84" fill="none" xmlns="http://www.w3.org/2000/svg">
<path d="M47.7449 58.343H54.863C56.0329 58.343 57.0044 59.3146 57.0044 60.4844C57.0044 61.6542 56.0329 62.6258 54.863 62.6258H47.7449C45.0285 62.6258 44.969 66.9086 47.7449 66.9086H54.863C56.0329 66.9086 57.0044 67.8801 57.0044 69.0499C57.0044 70.2198 56.0329 71.1913 54.863 71.1913H47.7449C45.0087 71.1913 44.969 75.4741 47.7449 75.4741H52.0277C53.1975 75.4741 54.169 76.4456 54.169 77.6155C54.169 78.7853 53.1975 79.7569 52.0277 79.7569H28.4725C25.4983 79.7569 22.8216 78.1905 21.3742 75.6525V49.6189C24.8242 48.9844 27.838 46.8826 29.6225 43.8094L36.8596 31.1593C37.038 30.8421 37.4544 30.7033 37.7915 30.9016C39.4768 31.7542 40.3294 33.6378 39.8932 35.4619C39.8932 35.4619 37.0975 47.1801 37.0975 47.1999C36.8001 48.449 37.8113 49.8171 39.1794 49.8171H54.863C56.0329 49.8171 57.0044 50.7887 57.0044 51.9585C57.0044 53.1283 56.0329 54.0999 54.863 54.0999H47.7449C45.0285 54.0999 44.9889 58.3827 47.7449 58.3827M17.0914 76.1681C17.0914 78.131 15.5052 79.737 13.5224 79.737H7.81209C5.84916 79.737 4.24308 78.1508 4.24308 76.1681V47.6559C4.24308 45.693 5.82933 44.0869 7.81209 44.0869H13.5224C15.4853 44.0869 17.0914 45.6732 17.0914 47.6559V76.1681ZM59.6613 56.2215C60.6527 55.0913 61.2872 53.6042 61.2872 51.9387C61.2872 48.4094 58.4122 45.5344 54.8829 45.5344H41.9156L44.0768 36.4335C44.969 32.6662 43.1846 28.8197 39.7742 27.055C37.3751 25.8257 34.4802 26.6783 33.132 29.0179L25.9147 41.6481C24.8638 43.5318 23.0397 44.8206 20.9776 45.2964C19.9466 42.124 17.0121 39.824 13.5422 39.824H7.83188C3.48963 39.824 0 43.3335 0 47.6559V76.1681C0 80.4905 3.50945 84 7.83188 84H13.5422C16.1991 84 18.5586 82.6517 19.9862 80.6293C22.2466 82.731 25.2405 84 28.4725 84H52.0277C55.557 84 58.432 81.125 58.432 77.5956C58.432 76.5646 58.2139 75.6327 57.7777 74.7801C59.8596 73.6896 61.2872 71.5284 61.2872 69.0499C61.2872 67.4042 60.6527 65.9172 59.6613 64.7672C60.6527 63.6172 61.2872 62.1499 61.2872 60.4844C61.2872 58.8189 60.6527 57.3516 59.6613 56.2016" fill="#EBE42D"/>
<path d="M31.3887 11.0938C32.7171 11.0938 33.9068 10.2214 34.3232 8.91276L34.918 7.02913L35.5129 8.91276C35.9292 10.2214 37.099 11.0938 38.4473 11.0938H40.5887L38.8637 12.3826C37.7732 13.1955 37.337 14.6231 37.7335 15.9317L38.3482 17.8947L36.7223 16.6852C35.6714 15.8921 34.1844 15.8723 33.0939 16.6852L31.468 17.8947L32.0827 15.9317C32.499 14.6231 32.043 13.1955 30.9525 12.3826L29.2275 11.0938H31.3688H31.3887ZM27.7999 15.3567C27.7999 15.3567 26.3327 19.9766 26.3327 19.9964C25.4602 22.7524 28.6525 25.3697 31.0714 23.5456L34.918 20.6705C34.918 20.6705 38.7447 23.5257 38.7646 23.5456C41.2034 25.3697 44.3758 22.7524 43.5034 19.9964L42.0361 15.3567L45.7637 12.5809C48.0835 10.836 46.9335 6.83086 43.9594 6.83086H39.3396C39.3396 6.83086 37.8525 2.13171 37.8525 2.11188C36.8413 -0.644163 32.9154 -0.763128 31.9835 2.11188L30.4965 6.83086H25.8766C22.9024 6.83086 21.7326 10.836 24.0723 12.5809L27.7999 15.3567Z" fill="#EBE42D"/>
<path d="M10.2686 8.69467L15.9789 9.78519C18.6557 10.3007 19.4289 6.09725 16.7919 5.58173C16.7919 5.58173 11.1013 4.49121 11.0815 4.49121C8.4246 3.97569 7.55218 8.17915 10.2686 8.69467Z" fill="#EBE42D"/>
<path d="M15.9815 14.8016C15.9815 14.8016 10.291 15.8921 10.2711 15.8921C7.67372 16.3878 8.40733 20.6111 11.0642 20.0956C11.0642 20.0956 16.7548 19.005 16.7746 19.005C19.4315 18.4895 18.6979 14.2662 15.9617 14.8016" fill="#EBE42D"/>
<path d="M58.7504 4.49119C58.7504 4.49119 53.0797 5.58171 53.04 5.58171C50.6409 6.05757 51.3547 10.261 53.8331 9.78516C53.8331 9.78516 59.5237 8.69464 59.5435 8.69464C62.1806 8.19895 61.4668 3.95584 58.7306 4.49119" fill="#EBE42D"/>
<path d="M53.0403 19.005L58.7507 20.0955C61.4274 20.6111 62.1808 16.4076 59.5636 15.8921C59.5636 15.8921 53.8731 14.8016 53.8533 14.8016C51.1766 14.286 50.324 18.4697 53.0403 19.005Z" fill="#EBE42D"/>
</svg>
