<svg width="53" height="53" viewBox="0 0 53 53" fill="none" xmlns="http://www.w3.org/2000/svg">
<path d="M41.3788 39.9882C36.8206 39.9882 33.1123 36.2798 33.1123 31.7217C33.1123 27.1635 36.8206 23.4552 41.3788 23.4552C45.9369 23.4552 49.6453 27.1635 49.6453 31.7217C49.6453 36.2798 45.9369 39.9882 41.3788 39.9882ZM19.3297 5.51615C19.0516 5.51615 18.7889 5.5934 18.5726 5.74791L14.787 8.2665H2.7967V4.12551C2.7967 3.3684 3.41477 2.75034 4.17189 2.75034H42.7695C43.5266 2.75034 44.1446 3.3684 44.1446 4.12551V5.50069H19.3297V5.51615ZM49.0118 39.6482C51.0977 37.6396 52.3956 34.8274 52.3956 31.7062C52.3956 27.6425 50.1706 24.0887 46.8795 22.1727V4.14098C46.8795 1.86963 45.0253 0 42.7385 0H4.14101C1.86965 0 0 1.85418 0 4.14098V20.6894C0 21.4465 0.618078 22.0646 1.3752 22.0646C2.13231 22.0646 2.75034 21.4465 2.75034 20.6894V11.0477H15.1578C15.4359 11.0477 15.6986 10.9705 15.9149 10.816L19.7005 8.29741H44.0982V21.0602C43.2175 20.8439 42.2904 20.7049 41.3479 20.7049C35.2755 20.7049 30.3156 25.6493 30.3156 31.7371C30.3156 37.825 35.2601 42.7694 41.3479 42.7694C42.2904 42.7694 43.2175 42.6303 44.0982 42.414V48.2856C44.0982 49.0427 43.4802 49.6607 42.7231 49.6607H23.4243C22.6672 49.6607 22.0491 50.2788 22.0491 51.0359C22.0491 51.793 22.6672 52.4111 23.4243 52.4111H42.7231C44.9945 52.4111 46.8641 50.5415 46.8641 48.2701V41.4406L49.9543 45.0408C50.4488 45.6125 51.3295 45.6743 51.9012 45.1953C52.4883 44.7008 52.5501 43.8356 52.0557 43.2484L48.9964 39.6791L49.0118 39.6482Z" fill="#EBE42D"/>
<path d="M41.3796 24.8149C37.5785 24.8149 34.4883 27.9052 34.4883 31.7062C34.4883 32.4634 35.1064 33.0814 35.8635 33.0814C36.6206 33.0814 37.2386 32.4634 37.2386 31.7062C37.2386 29.4349 39.0928 27.5653 41.3796 27.5653C42.1367 27.5653 42.7548 26.9472 42.7548 26.1901C42.7548 25.433 42.1367 24.8149 41.3796 24.8149Z" fill="#EBE42D"/>
<path d="M17.9394 49.6298H4.15674C3.39962 49.6298 2.78159 49.0118 2.78159 48.2547V26.2055C2.78159 25.4484 2.16352 24.8304 1.4064 24.8304C0.649281 24.8304 0.03125 25.4484 0.03125 26.2055V48.2547C0.03125 50.5415 1.8854 52.3956 4.17221 52.3956H17.9549C18.712 52.3956 19.33 51.7776 19.33 51.0204C19.33 50.2633 18.712 49.6453 17.9549 49.6453" fill="#EBE42D"/>
<path d="M6.92012 4.14099C6.163 4.14099 5.54492 4.75905 5.54492 5.51616C5.54492 6.27328 6.163 6.89133 6.92012 6.89133C7.67723 6.89133 8.29531 6.27328 8.29531 5.51616C8.29531 4.75905 7.67723 4.14099 6.92012 4.14099Z" fill="#EBE42D"/>
<path d="M11.0471 4.14099C10.29 4.14099 9.67188 4.75905 9.67188 5.51616C9.67188 6.27328 10.29 6.89133 11.0471 6.89133C11.8042 6.89133 12.4222 6.27328 12.4222 5.51616C12.4222 4.75905 11.8042 4.14099 11.0471 4.14099Z" fill="#EBE42D"/>
<path d="M5.53145 16.5484H13.7979C14.5551 16.5484 15.1731 15.9304 15.1731 15.1733C15.1731 14.4161 14.5551 13.7981 13.7979 13.7981H5.53145C4.77433 13.7981 4.15625 14.4161 4.15625 15.1733C4.15625 15.9304 4.77433 16.5484 5.53145 16.5484Z" fill="#EBE42D"/>
<path d="M5.53145 20.6894H13.7979C14.5551 20.6894 15.1731 20.0713 15.1731 19.3142C15.1731 18.5571 14.5551 17.939 13.7979 17.939H5.53145C4.77433 17.939 4.15625 18.5571 4.15625 19.3142C4.15625 20.0713 4.77433 20.6894 5.53145 20.6894Z" fill="#EBE42D"/>
<path d="M5.53145 24.8149H13.7979C14.5551 24.8149 15.1731 24.1969 15.1731 23.4397C15.1731 22.6826 14.5551 22.0646 13.7979 22.0646H5.53145C4.77433 22.0646 4.15625 22.6826 4.15625 23.4397C4.15625 24.1969 4.77433 24.8149 5.53145 24.8149Z" fill="#EBE42D"/>
</svg>
