<svg width="67" height="68" viewBox="0 0 67 68" fill="none" xmlns="http://www.w3.org/2000/svg">
<path d="M37.1459 22.3266H14.5226C14.1855 22.3266 13.8485 22.4654 13.5907 22.7034L10.1209 26.1534C9.88294 26.3913 9.74414 26.7284 9.74414 27.0654V40.9051C9.74414 41.2422 9.88294 41.5793 10.1209 41.8172L13.5907 45.2672C13.8286 45.5051 14.1657 45.6439 14.5226 45.6439H52.7899C53.127 45.6439 53.4641 45.5051 53.702 45.2672L57.1917 41.8172C57.4296 41.5793 57.5684 41.2422 57.5684 40.9051V27.0654C57.5684 26.7284 57.4296 26.3913 57.1917 26.1534L53.702 22.7034C53.4641 22.4654 53.127 22.3266 52.7899 22.3266H42.3606C41.6468 22.3266 41.052 22.9016 41.052 23.6353C41.052 24.3689 41.627 24.9241 42.3606 24.9241H52.2546L54.971 27.6206V40.3896L52.2546 43.0862H15.0579L12.3416 40.3896V27.6206L15.0579 24.9241H37.1261C37.8399 24.9241 38.4347 24.3491 38.4347 23.6353C38.4347 22.9215 37.8597 22.3266 37.1261 22.3266" fill="#EBE42D"/>
<path d="M37.1459 22.3266H14.5226C14.1855 22.3266 13.8485 22.4654 13.5907 22.7034L10.1209 26.1534C9.88294 26.3913 9.74414 26.7284 9.74414 27.0654V40.9051C9.74414 41.2422 9.88294 41.5793 10.1209 41.8172L13.5907 45.2672C13.8286 45.5051 14.1657 45.6439 14.5226 45.6439H52.7899C53.127 45.6439 53.4641 45.5051 53.702 45.2672L57.1917 41.8172C57.4296 41.5793 57.5684 41.2422 57.5684 40.9051V27.0654C57.5684 26.7284 57.4296 26.3913 57.1917 26.1534L53.702 22.7034C53.4641 22.4654 53.127 22.3266 52.7899 22.3266H42.3606C41.6468 22.3266 41.052 22.9016 41.052 23.6353C41.052 24.3689 41.627 24.9241 42.3606 24.9241H52.2546L54.971 27.6206V40.3896L52.2546 43.0862H15.0579L12.3416 40.3896V27.6206L15.0579 24.9241H37.1261C37.8399 24.9241 38.4347 24.3491 38.4347 23.6353C38.4347 22.9215 37.8597 22.3266 37.1261 22.3266H37.1459Z" stroke="#EBE42D" stroke-width="1.0665" stroke-miterlimit="10"/>
<path d="M62.9229 19.5508C62.6057 18.8964 61.8126 18.6387 61.1781 18.9559C60.5238 19.2732 60.266 20.0663 60.5832 20.7008C62.6651 24.8844 63.716 29.3654 63.716 34.0448C63.716 50.6008 50.2332 64.044 33.6771 64.044C27.6694 64.044 21.8797 62.2793 16.9228 58.9284C15.4357 57.9569 14.0676 56.8069 12.7986 55.5776L17.4978 56.2517C18.1918 56.3707 18.8659 55.8552 18.965 55.1414C19.0642 54.4276 18.5685 53.7733 17.8547 53.6741C17.8547 53.6741 9.2495 52.4448 9.22968 52.4448C8.39691 52.3258 7.64347 53.0793 7.76243 53.912C7.76243 53.912 8.99174 62.4974 8.99174 62.5172C9.09088 63.1914 9.78485 63.7267 10.459 63.6276C11.1728 63.5285 11.6685 62.8543 11.5693 62.1405L10.8952 57.3621C12.303 58.75 13.8297 59.9991 15.4556 61.0896C20.8487 64.7379 27.1539 66.6612 33.6573 66.6612C51.6608 66.6612 66.3134 52.0284 66.3134 34.0448C66.3134 28.9689 65.1634 24.0913 62.9031 19.5508" fill="#EBE42D"/>
<path d="M62.9229 19.5508C62.6057 18.8964 61.8126 18.6387 61.1781 18.9559C60.5238 19.2732 60.266 20.0663 60.5832 20.7008C62.6651 24.8844 63.716 29.3654 63.716 34.0448C63.716 50.6008 50.2332 64.044 33.6771 64.044C27.6694 64.044 21.8797 62.2793 16.9228 58.9284C15.4357 57.9569 14.0676 56.8069 12.7986 55.5776L17.4978 56.2517C18.1918 56.3707 18.8659 55.8552 18.965 55.1414C19.0642 54.4276 18.5685 53.7733 17.8547 53.6741C17.8547 53.6741 9.2495 52.4448 9.22968 52.4448C8.39691 52.3258 7.64347 53.0793 7.76243 53.912C7.76243 53.912 8.99174 62.4974 8.99174 62.5172C9.09088 63.1914 9.78485 63.7267 10.459 63.6276C11.1728 63.5284 11.6685 62.8543 11.5693 62.1405L10.8952 57.3621C12.303 58.75 13.8297 59.9991 15.4556 61.0896C20.8487 64.7379 27.1539 66.6612 33.6573 66.6612C51.6608 66.6612 66.3134 52.0284 66.3134 34.0448C66.3134 28.9689 65.1634 24.0913 62.9031 19.5508H62.9229Z" stroke="#EBE42D" stroke-width="1.0665" stroke-miterlimit="10"/>
<path d="M3.61725 33.9456C3.61725 17.4094 17.0802 3.9464 33.6561 3.9464C39.6639 3.9464 45.4536 5.71106 50.4105 9.06193C51.8975 10.0533 53.2656 11.1835 54.5346 12.4128L49.8355 11.7387C49.1217 11.6395 48.4674 12.1352 48.3484 12.849C48.2492 13.5628 48.7449 14.2171 49.4587 14.3163C49.4587 14.3163 58.0639 15.5456 58.0837 15.5456C58.9165 15.6645 59.6898 14.9111 59.551 14.0783L58.3217 5.47313C58.2225 4.75934 57.5484 4.26364 56.8346 4.36278C56.1208 4.46192 55.6251 5.11623 55.7243 5.83003L56.4182 10.6085C55.0105 9.22055 53.4837 7.97141 51.8579 6.88089C46.4648 3.23261 40.1596 1.30933 33.6363 1.30933C15.6328 1.30933 1 15.9421 1 33.9258C1 39.0017 2.15 43.8793 4.41035 48.4198C4.7276 49.0543 5.54053 49.312 6.15519 49.0146C6.8095 48.6974 7.06725 47.9043 6.75001 47.2698C4.66811 43.0862 3.61725 38.6051 3.61725 33.9258" fill="#EBE42D"/>
<path d="M3.61725 33.9456C3.61725 17.4094 17.0802 3.9464 33.6561 3.9464C39.6639 3.9464 45.4536 5.71106 50.4105 9.06193C51.8975 10.0533 53.2656 11.1835 54.5346 12.4128L49.8355 11.7387C49.1217 11.6395 48.4673 12.1352 48.3484 12.849C48.2492 13.5628 48.7449 14.2171 49.4587 14.3163C49.4587 14.3163 58.0639 15.5456 58.0837 15.5456C58.9165 15.6645 59.6898 14.9111 59.551 14.0783L58.3217 5.47313C58.2225 4.75934 57.5484 4.26364 56.8346 4.36278C56.1208 4.46192 55.6251 5.11623 55.7243 5.83003L56.4182 10.6085C55.0105 9.22055 53.4837 7.97141 51.8579 6.88089C46.4648 3.23261 40.1596 1.30933 33.6363 1.30933C15.6328 1.30933 1 15.9421 1 33.9258C1 39.0017 2.15 43.8793 4.41035 48.4198C4.7276 49.0543 5.54053 49.312 6.15519 49.0146C6.8095 48.6974 7.06725 47.9043 6.75001 47.2698C4.66811 43.0862 3.61725 38.6051 3.61725 33.9258V33.9456Z" stroke="#EBE42D" stroke-width="1.0665" stroke-miterlimit="10"/>
<path d="M31.9696 33.1525V32.7163C31.9696 31.5267 32.9213 30.5749 34.0911 30.5749C35.261 30.5749 36.2127 31.5465 36.2127 32.7163V33.1525H31.9498H31.9696ZM37.5213 40.8655C38.2351 40.8655 38.7903 40.2905 38.7903 39.5767V32.7163C38.7903 30.1189 36.6886 27.9973 34.111 27.9973C31.5334 27.9973 29.4316 30.1189 29.4316 32.7163V39.5767C29.4316 40.2905 30.0066 40.8655 30.7006 40.8655C31.3946 40.8655 31.9696 40.2905 31.9696 39.5767V35.7103H36.2325V39.5767C36.2325 40.2905 36.8075 40.8655 37.5213 40.8655Z" fill="#EBE42D"/>
<path d="M31.9696 33.1525V32.7163C31.9696 31.5267 32.9213 30.5749 34.0911 30.5749C35.261 30.5749 36.2127 31.5465 36.2127 32.7163V33.1525H31.9498H31.9696ZM37.5213 40.8655C38.2351 40.8655 38.7903 40.2905 38.7903 39.5767V32.7163C38.7903 30.1189 36.6886 27.9973 34.111 27.9973C31.5334 27.9973 29.4316 30.1189 29.4316 32.7163V39.5767C29.4316 40.2905 30.0066 40.8655 30.7006 40.8655C31.3946 40.8655 31.9696 40.2905 31.9696 39.5767V35.7103H36.2325V39.5767C36.2325 40.2905 36.8075 40.8655 37.5213 40.8655Z" stroke="#EBE42D" stroke-width="1.0665" stroke-miterlimit="10"/>
<path d="M21.8606 40.8655C22.5744 40.8655 23.1494 40.2905 23.1494 39.5767V30.5749H26.1434C26.8572 30.5749 27.4322 29.9999 27.4322 29.2861C27.4322 28.5723 26.8572 27.9973 26.1434 27.9973H17.5779C16.8641 27.9973 16.2891 28.5723 16.2891 29.2861C16.2891 29.9999 16.8641 30.5749 17.5779 30.5749H20.5718V39.5767C20.5718 40.2905 21.1468 40.8655 21.8606 40.8655Z" fill="#EBE42D"/>
<path d="M21.8606 40.8655C22.5744 40.8655 23.1494 40.2905 23.1494 39.5767V30.5749H26.1434C26.8572 30.5749 27.4322 29.9999 27.4322 29.2861C27.4322 28.5723 26.8572 27.9973 26.1434 27.9973H17.5779C16.8641 27.9973 16.2891 28.5723 16.2891 29.2861C16.2891 29.9999 16.8641 30.5749 17.5779 30.5749H20.5718V39.5767C20.5718 40.2905 21.1468 40.8655 21.8606 40.8655Z" stroke="#EBE42D" stroke-width="1.0665" stroke-miterlimit="10"/>
<path d="M42.2193 40.6474C42.7745 41.0241 43.6073 40.8853 43.984 40.2905L46.3236 36.7413L48.6633 40.2905C48.9012 40.6672 49.3176 40.8655 49.734 40.8655C49.9719 40.8655 50.2297 40.806 50.4478 40.6474C51.0426 40.2508 51.2012 39.4577 50.8047 38.8629L47.8702 34.4215L50.8047 29.9801C51.2012 29.3853 51.0426 28.5922 50.4478 28.1956C49.853 27.7991 49.0599 27.9577 48.6831 28.5525L46.3435 32.1017L44.0038 28.5525C43.6073 27.9577 42.8142 27.7991 42.2392 28.1956C41.6443 28.5922 41.4857 29.3853 41.8823 29.9801L44.8167 34.4215L41.8823 38.8629C41.4857 39.4577 41.6443 40.2508 42.2392 40.6474" fill="#EBE42D"/>
<path d="M42.2193 40.6474C42.7745 41.0241 43.6073 40.8853 43.984 40.2905L46.3236 36.7413L48.6633 40.2905C48.9012 40.6672 49.3176 40.8655 49.734 40.8655C49.9719 40.8655 50.2297 40.806 50.4478 40.6474C51.0426 40.2508 51.2012 39.4577 50.8047 38.8629L47.8702 34.4215L50.8047 29.9801C51.2012 29.3853 51.0426 28.5922 50.4478 28.1956C49.853 27.7991 49.0599 27.9577 48.6831 28.5525L46.3435 32.1017L44.0038 28.5525C43.6073 27.9577 42.8142 27.7991 42.2392 28.1956C41.6443 28.5922 41.4857 29.3853 41.8823 29.9801L44.8167 34.4215L41.8823 38.8629C41.4857 39.4577 41.6443 40.2508 42.2392 40.6474H42.2193Z" stroke="#EBE42D" stroke-width="1.0665" stroke-miterlimit="10"/>
</svg>
