<svg width="58" height="52" viewBox="0 0 58 52" fill="none" xmlns="http://www.w3.org/2000/svg">
<path d="M11.6119 48.1048L11.183 44.3669L22.6264 41.5175L23.2851 48.1201H11.6273L11.6119 48.1048ZM10.1107 41.5482L3.0332 32.5864L3.70724 16.5319C3.73788 15.7047 4.41192 15.046 5.23916 15.046C6.02044 15.092 6.66384 15.5975 6.78639 16.3634L8.37959 26.7805C7.33788 28.6341 7.62895 30.9932 9.20683 32.5558L11.4741 34.7771C12.0562 35.3592 13.006 35.3439 13.5881 34.7618C14.1702 34.1643 14.1549 33.2145 13.5881 32.6324L11.3209 30.4111C10.6315 29.7218 10.6009 28.6188 11.2443 27.8988C11.8877 27.1941 12.96 27.1022 13.7107 27.6843L20.5737 33.0307C21.3856 33.6588 21.9064 34.6086 22.0137 35.6503L22.3047 38.4843L10.1107 41.5328V41.5482ZM25.0009 35.3439C24.8171 33.4903 23.8673 31.7898 22.412 30.6562L15.549 25.3098C14.2468 24.2988 12.5617 24.0843 11.0758 24.5592L9.75832 15.9039C9.42129 13.6979 7.49108 12.0434 5.2698 12.0434H5.22384C2.78809 12.0434 0.796597 13.989 0.720001 16.4247L0 33.0154C0 33.383 0.107234 33.7201 0.337022 34.0111L8.07321 43.8154L8.77789 49.8052C8.8698 50.5558 9.51321 51.1226 10.2638 51.1226H24.9243C25.8128 51.1226 26.5022 50.3414 26.4256 49.4682L25.0009 35.3592V35.3439Z" fill="#EBE42D"/>
<path d="M47.014 41.5328L34.8199 38.4843L35.111 35.6349C35.2182 34.6086 35.7391 33.6588 36.551 33.0307L43.4293 27.669C44.1799 27.0869 45.2523 27.1788 45.8804 27.8834C46.5391 28.6035 46.5085 29.7064 45.8038 30.3958L43.5365 32.6324C42.9391 33.2145 42.9391 34.1643 43.5212 34.7618C44.1033 35.3592 45.0531 35.3592 45.6506 34.7771L47.9178 32.5405C49.4957 30.9933 49.7714 28.6341 48.7451 26.7805L50.3382 16.3634C50.4608 15.6128 51.1655 15.0154 51.8855 15.046C52.7127 15.046 53.3868 15.7047 53.4174 16.5319L54.0761 32.5864L46.9987 41.5328H47.014ZM45.5127 48.1048H33.8548L34.5135 41.5022L45.9416 44.3669L45.4974 48.1048H45.5127ZM56.4353 16.4094C56.328 13.989 54.3519 12.0587 51.9314 12.0434H51.8855C49.6489 12.0434 47.7187 13.6979 47.3816 15.9039L46.0642 24.5592C44.5782 24.069 42.8931 24.2988 41.591 25.3098L34.7127 30.6716C33.2574 31.8052 32.3076 33.5056 32.1237 35.3439C32.1237 35.3439 30.6991 49.4528 30.6991 49.4682C30.6225 50.2801 31.3272 51.1226 32.2003 51.1226H46.8455C47.6114 51.1226 48.2395 50.5558 48.3314 49.8052L49.0361 43.8307L56.7876 34.0265C57.0174 33.7507 57.1246 33.383 57.1093 33.0307L56.42 16.4094H56.4353Z" fill="#EBE42D"/>
<path d="M43.2904 6.52852C43.9797 6.98809 44.9142 6.78894 45.3738 6.09958L47.8555 2.33108C48.3151 1.64171 48.1159 0.707243 47.4265 0.247667C46.7372 -0.211908 45.8027 -0.0127605 45.3431 0.676602L42.8614 4.44511C42.4019 5.13447 42.601 6.06894 43.2904 6.52852Z" fill="#EBE42D"/>
<path d="M45.6361 9.51576C45.9118 10.2817 46.785 10.6953 47.551 10.4196L50.385 9.40852C51.1663 9.13277 51.5799 8.2749 51.2889 7.49362C51.0131 6.71234 50.1553 6.29873 49.374 6.58979L46.5399 7.60087C45.7587 7.87661 45.3604 8.73449 45.6361 9.51576Z" fill="#EBE42D"/>
<path d="M11.7494 6.09958C12.209 6.78894 13.1434 6.97277 13.8328 6.52852C14.5222 6.06894 14.7213 5.13447 14.2617 4.44511L11.78 0.676602C11.3205 -0.0127605 10.386 -0.211908 9.69662 0.247667C9.00726 0.707243 8.80811 1.64171 9.26769 2.33108L11.7494 6.09958Z" fill="#EBE42D"/>
<path d="M6.74111 9.40851C6.74111 9.40851 9.55984 10.4196 9.57516 10.4196C10.3105 10.68 11.2143 10.297 11.4901 9.51576C11.7658 8.73448 11.3675 7.87661 10.5862 7.60086L7.75217 6.58979C6.97089 6.31405 6.11302 6.72766 5.83728 7.49362C5.56153 8.27489 5.95983 9.13277 6.74111 9.40851Z" fill="#EBE42D"/>
<path d="M35.3276 18.7073C35.3276 19.2281 35.0518 19.7183 34.6076 20.0094C30.6552 22.4758 26.4731 22.4758 22.5207 20.0094C22.0765 19.7336 21.8007 19.2281 21.8007 18.7073V14.9081L27.8978 17.9566C28.3114 18.1711 28.8169 18.1711 29.2458 17.9566L35.3429 14.9081V18.7073H35.3276ZM19.9011 10.5881L28.5718 6.25277L37.2425 10.5881L28.5718 14.9234L19.9011 10.5881ZM38.3301 18.7073V13.3915C38.3301 13.3915 41.2561 11.9362 41.2561 11.9209C42.3437 11.3847 42.3437 9.77619 41.2561 9.2247L29.2305 3.20425C28.8016 2.98978 28.3114 2.98978 27.8824 3.20425C27.8824 3.20425 15.8722 9.20938 15.8569 9.2247C14.7692 9.76087 14.7845 11.3694 15.8569 11.9209L18.7828 13.3915V18.7073C18.7828 20.2545 19.5948 21.7251 20.9122 22.5524C25.5386 25.463 31.4059 25.5396 36.1854 22.5524C37.5029 21.7251 38.3148 20.2545 38.3148 18.7073" fill="#EBE42D"/>
</svg>
