<svg width="36" height="58" viewBox="0 0 36 58" fill="none" xmlns="http://www.w3.org/2000/svg">
<path d="M30.5376 41.4078C28.3164 42.7252 26.2636 41.7907 25.3751 41.2546C25.3291 40.2282 25.513 37.9763 27.7343 36.6588C29.9555 35.3414 32.0083 36.2758 32.8968 36.812C32.9428 37.8384 32.7589 40.0903 30.5376 41.4078ZM5.35291 38.4052C3.13163 37.1031 2.94779 34.8511 2.99375 33.8094C3.88226 33.2733 5.93507 32.3541 8.15635 33.6562C10.3776 34.9584 10.5614 37.2103 10.5155 38.252C9.62696 38.7882 7.57419 39.7226 5.35291 38.4052ZM35.7768 35.6784C35.7155 35.3414 35.5317 35.035 35.2713 34.8205C35.1028 34.6673 30.936 31.2664 26.2023 34.0699C22.7249 36.1226 22.3266 39.4929 22.3725 41.2392C21.1776 41.9286 20.2125 42.6792 19.4466 43.4452V29.9796C27.0296 29.229 32.9734 22.8103 32.9734 15.0281C32.9734 6.74046 26.233 0 17.9453 0C9.6576 0 2.91717 6.74046 2.91717 15.0281C2.91717 17.8622 3.71375 20.6349 5.24567 23.0401C5.68992 23.7447 6.6244 23.9439 7.31377 23.4996C8.01845 23.0554 8.21762 22.1209 7.77337 21.4315C6.56315 19.5166 5.91971 17.2954 5.91971 15.0434C5.91971 8.41024 11.3121 3.01788 17.9453 3.01788C24.5785 3.01788 29.9708 8.41024 29.9708 15.0434C29.9708 21.6766 24.5785 27.069 17.9453 27.069C15.678 27.069 13.4721 26.4256 11.5572 25.2154C10.8525 24.7711 9.93336 24.9856 9.48911 25.675C9.04485 26.3796 9.2593 27.2988 9.94866 27.743C11.9248 28.9992 14.1461 29.7192 16.444 29.9643V40.4426C15.678 39.692 14.713 38.9414 13.5181 38.2367C13.564 36.4903 13.1657 33.1201 9.68826 31.0673C4.93932 28.2639 0.787804 31.6801 0.619293 31.8179C0.358867 32.0477 0.175057 32.3388 0.113781 32.6758C0.0678231 32.9056 -0.912615 38.1907 3.83633 40.9941C6.36399 42.4801 9.56568 42.3882 12.0474 40.8563C16.2908 43.3073 16.4593 46.4477 16.4593 46.6316V54.138H13.4568C12.6295 54.138 11.9555 54.812 11.9555 55.6393C11.9555 56.4665 12.6295 57.1405 13.4568 57.1405H22.4797C23.307 57.1405 23.981 56.4665 23.981 55.6393C23.981 54.812 23.307 54.138 22.4797 54.138H19.4772V49.6495C19.4772 49.5116 19.6304 46.3405 23.8891 43.8741C26.3402 45.3907 29.6185 45.4673 32.1002 44.012C36.8491 41.2086 35.8687 35.9235 35.8228 35.6937" fill="#EBE42D"/>
<path d="M18.8794 18.046H14.927C14.0998 18.046 13.4258 18.7201 13.4258 19.5473C13.4258 20.3745 14.0998 21.0486 14.927 21.0486H16.4283V22.5498C16.4283 23.3771 17.1023 24.0511 17.9296 24.0511C18.7568 24.0511 19.4309 23.3771 19.4309 22.5498V20.9873C21.1313 20.7116 22.4334 19.2409 22.4334 17.4792C22.4334 15.886 21.407 14.5226 19.8904 14.063L16.8266 13.1439C16.5815 13.0673 16.4283 12.8528 16.4283 12.6077C16.4283 12.3013 16.6887 12.0409 16.9951 12.0409H20.9475C21.7747 12.0409 22.4488 11.3668 22.4488 10.5396C22.4488 9.71237 21.7747 9.03834 20.9475 9.03834H19.4462V7.53706C19.4462 6.70983 18.7721 6.03577 17.9449 6.03577C17.1177 6.03577 16.4436 6.70983 16.4436 7.53706V9.0996C14.7432 9.37535 13.4411 10.846 13.4411 12.6077C13.4411 14.2009 14.4675 15.5643 15.9841 16.0239L19.0479 16.943C19.293 17.0196 19.4462 17.2341 19.4462 17.4792C19.4462 17.7856 19.2011 18.046 18.8794 18.046Z" fill="#EBE42D"/>
</svg>
