<svg version="1.2" xmlns="http://www.w3.org/2000/svg" viewBox="0 0 525 66" width="525" height="66"><style>.a{fill:#fff}</style><path fill-rule="evenodd" class="a" d="m308.9 0h0.5v66h-0.5zm122.1 16.3v-7.3h1.4v7.4c0 1.6 1.1 2.6 2.8 2.6 1.7 0 2.9-1 2.9-2.6v-7.4h1.4v7.3c0 2.5-1.7 4-4.3 4-2.5 0-4.2-1.5-4.2-4zm10.9-4.1h1.3v1.5c0.6-1 1.5-1.7 2.8-1.7 1.6 0 2.8 1.2 2.8 2.9v5.3h-1.3v-5.1c0-1-0.7-1.8-1.8-1.8-1.5 0-2.5 1.3-2.5 3.4v3.5h-1.3zm9.3 0h1.3v8h-1.3zm-0.3-2.5c0-0.5 0.4-0.9 1-0.9 0.5 0 0.9 0.4 0.9 0.9 0 0.6-0.4 1-0.9 1-0.6 0-1-0.4-1-1zm4.5 2.5l2.2 6.4 2.2-6.4h1.4l-2.9 8h-1.4l-2.9-8zm14.3 4.2h-6.4c0.1 1.7 1.2 2.7 2.6 2.7 1.2 0 2.1-0.5 2.3-1.5l1.3 0.3c-0.4 1.5-1.8 2.4-3.6 2.4-2.4 0-3.9-1.8-3.9-4.1 0-2.3 1.4-4.1 3.9-4.1 2.4 0 3.8 1.7 3.8 3.7 0 0.2 0 0.5 0 0.7zm-1.4-1.2c-0.2-1.2-1-2.1-2.4-2.1-1.3 0-2.2 0.8-2.5 2.1zm7-2c-1.3 0-2.3 1.3-2.3 3.9v3h-1.3v-8h1.3v1.6c0.5-1 1.5-1.7 2.5-1.7q0.5 0 0.9 0.1l-0.1 1.3c-0.3-0.1-0.6-0.2-1-0.2zm1.7 4.7l1.2-0.5c0.3 0.9 0.9 1.7 2.2 1.7 1 0 1.6-0.6 1.6-1.2 0-2.1-4.6-0.8-4.6-3.8 0-1.3 1.1-2.1 2.8-2.1 1.4 0 2.6 0.8 3 1.9l-1.2 0.5c-0.2-0.8-1-1.3-1.9-1.3-0.9 0-1.4 0.3-1.4 1 0 1.7 4.6 0.4 4.6 3.7 0 1.4-1.2 2.4-2.9 2.4-2 0-3-1.2-3.4-2.3zm8.2-5.8h1.3v8h-1.3zm-0.3-2.5c0-0.5 0.4-0.9 0.9-0.9 0.6 0 1 0.4 1 0.9 0 0.6-0.4 1-1 1-0.5 0-0.9-0.4-0.9-1zm7 10.6c-1.4 0-2.4-0.7-2.4-2.5v-4.4h-1.5v-1.2h1.5v-2.4h1.4v2.4h2.1v1.2h-2.1v4.5c0 0.8 0.4 1.2 1.1 1.2 0.4 0 0.7 0 1-0.2l0.1 1.2q-0.6 0.2-1.2 0.2zm5.4 2.8h-1.3l1.1-3-3.1-7.9h1.5l2.3 6.1 2.4-6.1h1.3zm-66.4 23.6l1.4-0.4c0.2 1.6 1.4 2.6 2.9 2.6 1.4 0 2.5-0.7 2.5-1.9 0-2.9-6.4-1.4-6.4-5.3 0-1.7 1.6-2.9 3.8-2.9 2 0 3.6 1.1 3.9 2.7l-1.3 0.5c-0.3-1.2-1.2-1.9-2.6-1.9-1.4 0-2.3 0.6-2.3 1.6 0 2.5 6.3 0.9 6.3 5.3 0 1.9-1.6 3.2-4 3.2-2.1 0-3.9-1.4-4.2-3.5zm10.1-4.7h1.3v8h-1.3zm-0.3-2.4c0-0.6 0.4-1 1-1 0.5 0 0.9 0.4 0.9 1 0 0.5-0.4 0.9-0.9 0.9-0.6 0-1-0.4-1-0.9zm4 2.4h1.3v1.5c0.6-0.9 1.6-1.6 2.8-1.6 1.7 0 2.8 1.1 2.8 2.8v5.3h-1.3v-5c0-1.1-0.7-1.9-1.8-1.9-1.5 0-2.5 1.3-2.5 3.4v3.5h-1.3zm16.5 7.7c0 2-1.5 3.4-3.7 3.4-1.9 0-3.3-1-3.5-2.5l1.3-0.2c0 0.9 1 1.5 2.2 1.5 1.4 0 2.4-0.8 2.4-2.1v-1.1c-0.4 0.7-1.4 1.1-2.6 1.1-2.4 0-3.8-1.7-3.8-3.9 0-2.3 1.4-4 3.8-4 1.1 0 2.1 0.5 2.6 1.2v-1.1h1.3zm-1.2-3.7c0-1.7-1-2.8-2.5-2.8-1.6 0-2.6 1.1-2.6 2.8 0 1.6 1 2.7 2.6 2.7 1.5 0 2.5-1.1 2.5-2.7zm9.9-1v5.1h-1.4v-1.4c-0.4 1-1.5 1.5-2.6 1.5-1.6 0-2.7-0.9-2.7-2.3 0-1.6 1.2-2.4 3.8-2.7l1.5-0.2v-0.1c0-1.1-0.7-1.8-1.9-1.8-1.1 0-1.9 0.6-2 1.7l-1.3-0.2c0.3-1.6 1.6-2.6 3.3-2.6 1.9 0 3.3 1.1 3.3 3zm-1.4 1.5v-0.4l-1.5 0.2c-1.6 0.1-2.5 0.7-2.5 1.5 0 0.8 0.7 1.3 1.6 1.3 1.5 0 2.4-1 2.4-2.6zm3.7-4.4h1.4v1.1c0.4-0.7 1.5-1.2 2.6-1.2 2.5 0 3.8 1.7 3.8 4.1 0 2.3-1.4 4.1-3.8 4.1-1 0-2.1-0.5-2.6-1.2v4h-1.4zm6.5 4c0-1.8-1.1-2.9-2.6-2.9-1.6 0-2.6 1.1-2.6 2.9 0 1.8 1 2.9 2.6 2.9 1.5 0 2.6-1.1 2.6-2.9zm2.8 0c0-2.4 1.7-4.1 4-4.1 2.4 0 4.1 1.7 4.1 4.1 0 2.4-1.7 4.1-4.1 4.1-2.3 0-4-1.7-4-4.1zm6.7 0c0-1.7-1.1-2.9-2.7-2.9-1.6 0-2.7 1.2-2.7 2.9 0 1.7 1.1 2.9 2.7 2.9 1.6 0 2.7-1.2 2.7-2.9zm7-2.9c-1.3 0-2.3 1.2-2.3 3.8v3.1h-1.4v-8h1.4v1.6c0.4-1 1.5-1.7 2.5-1.7q0.5 0 0.9 0.1l-0.1 1.3c-0.3-0.1-0.7-0.2-1-0.2zm9.4 3.1h-6.3c0.1 1.7 1.1 2.7 2.5 2.7 1.3 0 2.1-0.5 2.4-1.5l1.2 0.3c-0.4 1.5-1.7 2.4-3.6 2.4-2.4 0-3.9-1.8-3.9-4.1 0-2.3 1.5-4.2 3.9-4.2 2.4 0 3.8 1.8 3.8 3.8 0 0.2 0 0.5 0 0.6zm-1.4-1.1c-0.1-1.2-1-2.1-2.4-2.1-1.2 0-2.2 0.8-2.4 2.1zm-104.8 12.3h-7.2l-3.3-9.2c0 0-3.2 1.7-7.1 1.7-3.9 0-7-1.7-7-1.7l-3.4 9.2h-7.1l14.2-40.3h6.6zm-11.5-15.6l-6-16.7-6 16.7c1.4 1.4 4.3 2 6 2 1.6 0 4.5-0.6 6-2zm21.3-27.3c-3.2 0-5.9 2.1-5.9 5.1 0 8.7 19.8 3.7 19.8 19.1 0 6.5-5.5 11.2-12.8 11.2-8.1 0-13.7-5.8-13.7-13.8h6.4c0 4.8 3.2 7.6 7.5 7.6 3.8 0 6.2-2.5 6.2-5.5 0-8.6-19.9-5.2-19.9-18 0-7.3 5.4-11.9 12.4-11.9 7.5 0 12.8 5.1 12.8 12.8h-6.4c0-4.1-3.2-6.6-6.4-6.6zm-70.5 20.5v-26.1h6.9v26.7c0 4.9 3.1 7.8 7.3 7.8 4.3 0 7.4-2.9 7.4-7.8v-26.7h6.9v26.1c0 9-5.7 14.9-14.3 14.9-8.5 0-14.2-5.9-14.2-14.9zm109.6-2.9c0-2.4 1.6-4.1 4-4.1 2.4 0 4.1 1.7 4.1 4.1 0 2.4-1.7 4.1-4.1 4.1-2.3 0-4-1.7-4-4.1zm6.7 0c0-1.7-1.1-2.9-2.7-2.9-1.6 0-2.7 1.2-2.7 2.9 0 1.7 1.1 2.9 2.7 2.9 1.6 0 2.7-1.2 2.7-2.9zm3.9-2.8h-1.4v-1.2h1.4v-0.8c0-1.7 1-2.7 2.3-2.7 0.4 0 0.8 0.1 1.1 0.2v1.2q-0.5-0.2-0.9-0.2c-0.7 0-1.2 0.6-1.2 1.4v0.9h2.1v1.2h-2.1v6.8h-1.3c0 0 0-6.8 0-6.8zm12.1 6.9c-1.3 0-2.3-0.7-2.3-2.5v-4.4h-1.5v-1.2h1.5v-2.5h1.3v2.5h2.2v1.2h-2.2v4.4c0 0.9 0.5 1.3 1.2 1.3 0.3 0 0.7-0.1 1-0.2l0.1 1.2q-0.6 0.2-1.3 0.2zm3.2-11.4h1.3v4.8c0.6-1.1 1.6-1.7 2.8-1.7 1.8 0 3 1.2 3 2.9v5.3h-1.4v-5c0-1.2-0.7-1.9-1.9-1.9-1.5 0-2.5 1.3-2.5 3.5v3.4h-1.3zm16.6 7.5h-6.3c0.1 1.6 1.1 2.7 2.6 2.7 1.2 0 2-0.6 2.3-1.6l1.2 0.3c-0.4 1.6-1.7 2.5-3.5 2.5-2.4 0-3.9-1.9-3.9-4.2 0-2.2 1.4-4.1 3.8-4.1 2.5 0 3.9 1.7 3.9 3.8 0 0.2-0.1 0.5-0.1 0.6zm-1.4-1.1c-0.1-1.3-1-2.2-2.4-2.2-1.2 0-2.1 0.8-2.4 2.2zm13.9 2h-5l-1.1 2.8h-1.5l4.4-11.1h1.4l4.4 11.1h-1.5zm-0.5-1.2l-2-5.1-2 5.1zm8.2-2.8c-1.3 0-2.3 1.2-2.3 3.8v3.1h-1.4v-8h1.4v1.6c0.4-1 1.5-1.8 2.5-1.8q0.5 0 0.9 0.2l-0.1 1.3c-0.3-0.2-0.7-0.2-1-0.2zm5.8 7c-1.3 0-2.3-0.8-2.3-2.5v-4.5h-1.5v-1.2h1.5v-2.4h1.3v2.4h2.2v1.2h-2.2v4.5c0 0.8 0.5 1.3 1.2 1.3 0.3 0 0.7-0.1 1-0.3l0.1 1.3q-0.6 0.2-1.3 0.2zm2.5-2.4l1.1-0.5c0.3 1 1 1.7 2.2 1.7 1 0 1.6-0.5 1.6-1.2 0-2-4.6-0.7-4.6-3.8 0-1.2 1.1-2.1 2.8-2.1 1.5 0 2.7 0.8 3 2l-1.1 0.5c-0.2-0.9-1-1.4-1.9-1.4-0.9 0-1.5 0.4-1.5 1 0 1.7 4.7 0.5 4.7 3.8 0 1.4-1.2 2.4-3 2.4-1.9 0-3-1.2-3.3-2.4zm-421.6-17.6v12h18.4v7.9h-18.4v20.3h-9.2v-48.1h30.8v7.9zm-27.7-7.9l15.5 48.1h-9.7l-4.2-13.7h-17.1l-4.3 13.7h-8.9l15.5-47.7 0.1-0.4zm-6.8 9.1l-6.2 17.6h12.3zm-33.8-8.5v-0.6h8.8v48.1h-13.3l-15-37.8v20.7 17.1h-8.9v-48.1h13.3l15.1 37.9v-34.7zm151.5 7.8c0.2 0.4 0.4 0.9 0.4 1.6q0 0.5-0.2 1.1-0.3 0.6-0.8 1.1-0.5 0.4-0.9 0.6-0.4 0.2-0.9 0.2c-0.5 0-0.9-0.2-1.3-0.5-0.6-0.5-1-1.3-1.1-2q0-0.1 0-0.2 0-0.2 0-0.4c-0.4-2.8-2.3-5.1-4.8-6.2-1.4-0.6-2.9-1-4.6-1-1.6 0-3.4 0.3-5.3 1.2-2.5 1.1-4.9 3.3-7.1 6-2.1 2.5-4 5.5-5.4 8.2l10.3 27.7 0.9 2.4h-9.4l-7-18.6q-0.4 0.7-0.7 1.4-1.1 2-2.3 4-1.1 1.9-2.2 3.7-0.3 0.4-0.5 0.8c-0.2 0.4-0.5 0.7-0.7 0.9-0.8 1.3-1.6 2.6-2.6 3.9-1.2 1.6-2.6 3.1-4.5 3.9-1.3 0.5-2.6 0.8-3.9 0.8q0 0-0.1 0c-1.5 0-3-0.2-4.4-0.8-1.8-0.8-3-2-3.7-2.9-0.6-1-0.9-1.7-0.9-1.8-0.6-1.5-0.8-2.9-0.8-4.4 0-1.9 0.4-3.8 1.1-5.9 0.7-2 1.6-4.2 2.6-6.8l9.9-26.5h12.1l4.6 13.2-6.1 8.6-4.6-12.7-8.5 22.9c-0.7 1.8-1.3 3.4-1.8 4.7-0.5 1.4-0.8 2.5-0.9 3.4q-0.1 0.6-0.1 1.3c0 0.7 0.1 1.4 0.3 2q0.3 0.9 0.8 1.3 0.4 0.3 1 0.4 0.1 0 0.2 0 0.7 0 1.7-0.7c0.7-0.5 1.5-1.2 2.3-2.1 1.7-1.8 3.5-4.4 5.3-7.3 3.6-5.7 7.3-12.7 9.9-17.5q0.6-1 1.2-2.1 3.1-5.4 6.4-8.9 3.2-3.4 6.5-4.9c2.3-1 4.4-1.4 6.3-1.4 2.5 0 4.7 0.7 6.5 1.6 1.7 0.8 3.1 1.9 3.9 2.7q0.1 0.1 0.3 0.3 1.7 1.4 3.1 3c0.1 0.1 0.3 0.3 0.5 0.7zm13.5-8v12.9h-1.4v-13h2.6l5.4 12.9v-12.9h1.4v13h-2.6l-5.4-12.9zm14.1 13.1c-2.2 0-3.6-1.7-3.6-4.6 0-2.8 1.4-4.5 3.6-4.5 2 0 3.2 1.1 3.2 3v-2.8h1.4v8.7h-1.4v-2.9c0 1.9-1.2 3.1-3.2 3.1zm-2.1-4.6c0 2.1 0.9 3.4 2.7 3.4 1.7 0 2.7-1.3 2.7-3.4 0-2-1-3.3-2.7-3.3-1.7 0-2.7 1.2-2.7 3.3zm15.4 4.4v-5.4c0-1.4-0.8-2.3-2.2-2.3-1.5 0-2.4 1.1-2.4 2.9v4.8h-1.4v-8.7h1.4v3h0.1c0-2 1-3.2 2.8-3.2 2 0 3.1 1.3 3.1 3.5v5.4zm6.9 0h-1.2l-2.7-8.7h1.5l2.6 8.6 2.6-8.6h1.5l-4 12.8h-1.6zm9 0.1c-2.3 0-3.6-1.7-3.6-4.5 0-2.8 1.3-4.5 3.6-4.5 2 0 3.2 1.1 3.2 3v-2.9h1.4v8.8h-1.4v-2.9c0 1.9-1.2 3-3.2 3zm-2.2-4.5c0 2.1 1 3.3 2.8 3.3 1.7 0 2.7-1.3 2.7-3.3 0-2.1-1-3.4-2.7-3.4-1.8 0-2.8 1.3-2.8 3.4zm10.9 4.4h-1.4v-8.7h1.4v3c0-2 1.1-3.2 2.9-3.2 2 0 3.1 1.3 3.1 3.5v5.4h-1.4v-5.4c0-1.5-0.8-2.3-2.2-2.3-1.5 0-2.4 1.1-2.4 2.9 0 0 0 4.8 0 4.8zm11.7 0.1c-2.3 0-3.6-1.7-3.6-4.5 0-2.9 1.4-4.5 3.6-4.5 2 0 3.2 1.1 3.2 3v-2.8h1.4v8.9c0 2.5-1.5 4-4 4-2.3 0-3.8-1.2-4-3.3l1.4-0.1c0.1 1.4 1 2.2 2.5 2.2 1.7 0 2.7-1 2.7-2.7v-3.2c0 1.9-1.2 3-3.2 3zm-2.2-4.5c0 2.1 1 3.3 2.8 3.3 1.7 0 2.7-1.3 2.7-3.3 0-2-1-3.3-2.7-3.3-1.8 0-2.8 1.2-2.8 3.3zm-52.9 21.7h-1.6l-1.1-3.3h-6.1l-1.1 3.3h-1.5l4.4-13h2.6zm-3.1-4.6l-2.6-8.3-2.7 8.3c0 0 5.3 0 5.3 0zm10.8 1.5h1.4c-0.3 2.1-1.7 3.3-3.9 3.3-2.6 0-4.1-1.7-4.1-4.5 0-2.9 1.5-4.6 4.1-4.6 2.1 0 3.5 1.1 3.9 3.1h-1.4c-0.4-1.2-1.3-1.9-2.5-1.9-1.7 0-2.7 1.2-2.7 3.4 0 2.1 1 3.3 2.7 3.3 1.3 0 2.2-0.8 2.5-2.1zm9.7-5.6h1.4v8.7h-1.4v-2.9c0 1.9-1.2 3.1-3.1 3.1-2.3 0-3.7-1.7-3.7-4.6 0-2.8 1.4-4.5 3.7-4.5 1.9 0 3.1 1.2 3.1 3.1zm0.1 4.3c0-2-1-3.3-2.7-3.3-1.7 0-2.7 1.2-2.7 3.3 0 2.1 1 3.4 2.7 3.4 1.7 0 2.7-1.3 2.7-3.4zm7.1 4.5c-2.2 0-3.6-1.7-3.6-4.5 0-2.8 1.4-4.5 3.6-4.5 2 0 3.2 1.1 3.2 3v-7.7h1.4v13.6h-1.4v-2.9c0 1.9-1.2 3-3.2 3zm0.6-1.2c1.7 0 2.7-1.2 2.7-3.3 0-2.1-1-3.3-2.7-3.3-1.7 0-2.7 1.2-2.7 3.3 0 2.1 0.9 3.3 2.7 3.3zm14.1-2q0 0 0 0zm0 0c-0.3 2-1.8 3.2-4 3.2-2.5 0-3.9-1.6-3.9-4.5 0-2.9 1.4-4.5 3.9-4.5 2.5 0 4 1.6 4 4.5v0.2h-6.5c0 2 1 3.2 2.5 3.2 1.4 0 2.4-0.8 2.6-2.1zm-6.5-1.8h5.1c-0.2-1.8-1.1-2.9-2.6-2.9-1.4 0-2.4 1.1-2.5 2.9zm12.4-2.8c-1.5 0-2.3 1-2.3 2.8v4.9h-1.5v-8.7h1.5v2.9c0-2 1-3.1 2.8-3.1 1.9 0 3 1.2 3 3.1 0-2 1.1-3.1 2.8-3.1 1.9 0 3 1.2 3 3.4v5.5h-1.4v-5.5c0-1.4-0.7-2.2-2-2.2-1.5 0-2.4 1-2.4 2.8v4.9h-1.4v-5.5c0-1.4-0.8-2.2-2.1-2.2zm15 7.6l2.6-8.6h1.5l-4 12.7h-1.5l1.3-4h-1.2l-2.8-8.7h1.5l2.6 8.6zm-62.6 13.3c0 2.8-1.5 4.5-4.1 4.5-2.7 0-4.2-1.7-4.2-4.5 0-2.9 1.5-4.6 4.2-4.6 2.6 0 4.1 1.7 4.1 4.6zm-1.4 0c0-2.1-1-3.4-2.7-3.4-1.8 0-2.8 1.3-2.8 3.4 0 2.1 1 3.3 2.8 3.3 1.7 0 2.7-1.2 2.7-3.3zm6.9-9.4c0.6 0 1.2 0.1 1.7 0.4l-0.2 1.1q-0.5-0.3-1.2-0.3c-1.3 0-1.9 0.7-1.9 1.8v2h3v1.1h-2.9v7.6h-1.4v-7.6h-1.4v-1.1h1.3c0 0 0-1.3 0-2.3 0-1.7 1.1-2.7 3-2.7zm7 13.7v-13h7.6v1.2h-6.2v4.6h5.3v1.2h-5.3v6zm9.4-12.5h1.4v1.9h-1.4zm0 3.8h1.4v8.7h-1.4zm11.5 3.3v5.4h-1.4v-5.4c0-1.5-0.8-2.3-2.1-2.3-1.6 0-2.5 1.1-2.5 2.9v4.8h-1.4v-8.7h1.4v3h0.1c0-2 1-3.2 2.9-3.2 1.9 0 3 1.3 3 3.5zm6.1-3.5c2.5 0 3.9 1.7 3.9 4.5v0.2h-6.5c0.1 2 1 3.2 2.6 3.2 1.4 0 2.3-0.8 2.5-2.1h1.4c-0.2 2.1-1.7 3.3-3.9 3.3-2.5 0-4-1.7-4-4.6 0-2.8 1.5-4.5 4-4.5zm2.5 4c-0.1-1.8-1-2.9-2.5-2.9-1.5 0-2.4 1.1-2.6 2.9zm13.1-8.1l4.3 13h-1.6l-1-3.3h-6.1l-1.1 3.3h-1.5l4.4-13zm1.3 8.4l-2.7-8.3-2.6 8.3c-0.1 0 5.3 0 5.3 0zm8.8-4.3c0.5 0 1 0.1 1.4 0.3l-0.5 1.3c-0.3-0.2-0.8-0.3-1.2-0.3-1.6 0-2.5 1.2-2.5 3.3v4.3h-1.4v-8.7h1.4v3.3c0-2.2 1.1-3.5 2.8-3.5zm4.8 0.2h2.8v1.1h-2.9v5c0 1 0.6 1.6 1.5 1.6 0.5 0 0.9-0.1 1.3-0.3v1.1c-0.5 0.2-1.1 0.4-1.7 0.4-1.6 0-2.5-1-2.5-2.7v-5.1h-1.4v-1.1h1.5v-3h1.4zm11.1 6.2c0 1.6-1.3 2.6-3.6 2.6-2.3 0-3.6-1.1-3.6-3h1.3c0 1.3 0.9 2 2.3 2 1.4 0 2.2-0.6 2.2-1.5 0-1.2-1.2-1.4-2.4-1.7-1.5-0.2-3.2-0.5-3.2-2.3 0-1.6 1.3-2.5 3.4-2.5 2.1 0 3.4 1 3.4 2.9h-1.4c0-1.2-0.8-1.9-2-1.9-1.2 0-2 0.5-2 1.4 0 1 1.1 1.2 2.3 1.4 1.6 0.3 3.3 0.6 3.3 2.6zm-135.3-28.4zm122.9 22.1q0 0 0 0z"/></svg>