<?xml version="1.0" encoding="UTF-8"?>
<svg id="Layer_2" data-name="Layer 2" xmlns="http://www.w3.org/2000/svg" viewBox="0 0 500 98.59">
  <g id="Layer_1-2" data-name="Layer 1">
    <g>
      <g>
        <g>
          <polygon points="5.17 81.86 5.15 81.86 1.69 73.56 0 73.56 0 81.95 .92 81.95 .89 73.65 .91 73.65 4.38 81.95 6.05 81.95 6.05 73.56 5.15 73.56 5.17 81.86"/>
          <path d="M12.03,78.17h-.02c0-1.22-.77-1.95-2.03-1.95-1.46,0-2.33,1.09-2.33,2.91s.87,2.93,2.33,2.93c1.26,0,2.03-.74,2.03-1.96h.02v1.85h.91v-5.61h-.91v1.84Zm-1.7,3.12c-1.11,0-1.75-.79-1.75-2.15s.64-2.15,1.75-2.15,1.76,.83,1.76,2.15-.64,2.15-1.76,2.15Z"/>
          <path d="M17.45,76.22c-1.16,0-1.86,.76-1.86,2.04h-.02v-1.93h-.91v5.61h.91v-3.07c0-1.19,.58-1.89,1.56-1.89,.89,0,1.4,.56,1.4,1.5v3.47h.91v-3.49c0-1.41-.73-2.23-1.99-2.23Z"/>
          <polygon points="23.09 81.88 23.06 81.88 21.41 76.33 20.44 76.33 22.2 81.95 22.98 81.95 22.14 84.55 23.12 84.55 25.71 76.33 24.74 76.33 23.09 81.88"/>
          <path d="M30.81,78.17h-.02c0-1.22-.77-1.95-2.03-1.95-1.46,0-2.33,1.09-2.33,2.91s.87,2.93,2.33,2.93c1.26,0,2.03-.74,2.03-1.96h.02v1.85h.91v-5.61h-.91v1.84Zm-1.7,3.12c-1.11,0-1.75-.79-1.75-2.15s.64-2.15,1.75-2.15,1.76,.83,1.76,2.15-.64,2.15-1.76,2.15Z"/>
          <path d="M36.23,76.22c-1.16,0-1.86,.76-1.86,2.04h-.02v-1.93h-.91v5.61h.91v-3.07c0-1.19,.58-1.89,1.56-1.89,.89,0,1.4,.56,1.4,1.5v3.47h.91v-3.49c0-1.41-.73-2.23-1.99-2.23Z"/>
          <path d="M43.95,78.17h-.02c0-1.22-.77-1.95-2.03-1.95-1.46,0-2.33,1.08-2.33,2.9s.87,2.91,2.33,2.91c1.26,0,2.03-.74,2.03-1.96h.02v2.06c0,1.11-.63,1.77-1.71,1.77-.98,0-1.6-.53-1.66-1.42l-.87,.09c.11,1.3,1.05,2.09,2.53,2.09,1.64,0,2.62-.96,2.62-2.6v-5.74h-.91v1.84Zm-1.7,3.1c-1.11,0-1.75-.79-1.75-2.14s.64-2.14,1.75-2.14,1.76,.83,1.76,2.14-.64,2.14-1.76,2.14Z"/>
          <path d="M51.02,73.56l-2.82,8.39h.98l.69-2.15h3.93l.69,2.15h1.03l-2.81-8.39h-1.69Zm-.9,5.44l1.71-5.35h.02l1.7,5.35h-3.43Z"/>
          <path d="M58.85,81.29c-1.09,0-1.73-.79-1.73-2.15s.64-2.15,1.73-2.15c.81,0,1.36,.44,1.61,1.21h.91c-.27-1.26-1.18-1.97-2.52-1.97-1.66,0-2.66,1.09-2.66,2.91s1,2.93,2.66,2.93c1.4,0,2.31-.77,2.55-2.1h-.91c-.21,.84-.79,1.33-1.64,1.33Z"/>
          <path d="M66.74,78.17h-.02c0-1.22-.77-1.95-2.03-1.95-1.46,0-2.33,1.09-2.33,2.91s.87,2.93,2.33,2.93c1.26,0,2.03-.74,2.03-1.96h.02v1.85h.91v-5.61h-.91v1.84Zm-1.7,3.12c-1.11,0-1.75-.79-1.75-2.15s.64-2.15,1.75-2.15,1.76,.83,1.76,2.15-.64,2.15-1.76,2.15Z"/>
          <path d="M73.43,78.17h-.02c0-1.22-.77-1.95-2.03-1.95-1.46,0-2.33,1.09-2.33,2.91s.87,2.93,2.33,2.93c1.26,0,2.03-.74,2.03-1.96h.02v1.85h.91v-8.73h-.91v4.96Zm-1.7,3.12c-1.11,0-1.75-.79-1.75-2.15s.64-2.15,1.75-2.15,1.76,.83,1.76,2.15-.64,2.15-1.76,2.15Z"/>
          <path d="M78.28,76.22c-1.6,0-2.55,1.08-2.55,2.93s.95,2.91,2.55,2.91c1.42,0,2.36-.77,2.54-2.09h-.9c-.14,.84-.75,1.35-1.64,1.35-1,0-1.61-.75-1.65-2.04h4.19v-.14c0-1.85-.94-2.93-2.54-2.93Zm-1.64,2.6c.09-1.18,.7-1.86,1.64-1.86s1.54,.68,1.63,1.86h-3.27Z"/>
          <path d="M88.72,76.22c-1.14,0-1.82,.74-1.82,2h-.02c0-1.2-.7-2-1.91-2s-1.83,.74-1.83,2h-.02v-1.88h-.91v5.61h.91v-3.13c0-1.16,.55-1.84,1.51-1.84,.85,0,1.34,.53,1.34,1.44v3.53h.91v-3.13c0-1.16,.57-1.84,1.52-1.84,.84,0,1.34,.53,1.34,1.44v3.53h.91v-3.55c0-1.37-.71-2.18-1.93-2.18Z"/>
          <polygon points="94.31 81.88 94.29 81.88 92.63 76.33 91.66 76.33 93.42 81.95 94.2 81.95 93.37 84.55 94.34 84.55 96.94 76.33 95.96 76.33 94.31 81.88"/>
          <path d="M103.07,76.22c-1.69,0-2.7,1.09-2.7,2.91s1.01,2.93,2.7,2.93,2.68-1.09,2.68-2.93-1-2.91-2.68-2.91Zm0,5.07c-1.11,0-1.76-.79-1.76-2.15s.65-2.15,1.76-2.15,1.76,.8,1.76,2.15-.65,2.15-1.76,2.15Z"/>
          <path d="M107.33,74.86c0,.62,0,1.47,0,1.47h-.82v.69h.89v4.92h.91v-4.92h1.87v-.69h-1.94v-1.27c0-.75,.42-1.19,1.23-1.19,.3,0,.55,.06,.79,.19l.12-.73c-.31-.16-.69-.24-1.1-.24-1.22,0-1.95,.65-1.95,1.76Z"/>
          <polygon points="113.77 81.95 114.71 81.95 114.71 78.09 118.13 78.09 118.13 77.3 114.71 77.3 114.71 74.35 118.7 74.35 118.7 73.56 113.77 73.56 113.77 81.95"/>
          <rect x="119.84" y="73.9" width=".91" height="1.19"/>
          <rect x="119.84" y="76.33" width=".91" height="5.61"/>
          <path d="M125.26,76.22c-1.16,0-1.86,.76-1.86,2.04h-.02v-1.93h-.91v5.61h.91v-3.07c0-1.19,.58-1.89,1.56-1.89,.89,0,1.4,.56,1.4,1.5v3.47h.91v-3.49c0-1.41-.73-2.23-1.99-2.23Z"/>
          <path d="M131.14,76.22c-1.6,0-2.55,1.08-2.55,2.93s.95,2.91,2.55,2.91c1.42,0,2.36-.77,2.54-2.09h-.9c-.14,.84-.75,1.35-1.64,1.35-1,0-1.61-.75-1.65-2.04h4.19v-.14c0-1.85-.94-2.93-2.54-2.93Zm-1.64,2.6c.09-1.18,.7-1.86,1.64-1.86s1.54,.68,1.63,1.86h-3.27Z"/>
          <path d="M139.49,73.56l-2.82,8.39h.98l.69-2.15h3.93l.69,2.15h1.03l-2.81-8.39h-1.69Zm-.9,5.44l1.71-5.35h.02l1.7,5.35h-3.43Z"/>
          <path d="M145.93,78.47h-.02v-2.13h-.91v5.61h.91v-2.76c0-1.34,.59-2.12,1.59-2.12,.3,0,.6,.07,.81,.19l.28-.87c-.22-.11-.53-.17-.85-.17-1.13,0-1.8,.83-1.8,2.25Z"/>
          <path d="M150.8,74.38h-.91v1.95h-.95v.69h.89v3.33c0,1.08,.6,1.7,1.62,1.7,.39,0,.79-.09,1.08-.23v-.73c-.22,.11-.51,.18-.79,.18-.63,0-1-.36-1-.99v-3.28h1.87v-.69h-1.81v-1.95Zm-.87,1.93s0,.01,0,.02h0v-.02Z"/>
          <path d="M155.84,78.67c-.78-.14-1.48-.27-1.48-.91,0-.57,.48-.9,1.28-.9s1.29,.44,1.29,1.21h.88c0-1.18-.81-1.86-2.16-1.86s-2.16,.61-2.16,1.6c0,1.18,1.05,1.37,2.01,1.54,.82,.16,1.6,.29,1.6,1.08,0,.6-.53,.96-1.44,.96s-1.45-.47-1.45-1.27h-.88c0,1.21,.87,1.93,2.33,1.93s2.33-.64,2.33-1.7c0-1.29-1.14-1.51-2.13-1.69Z"/>
        </g>
        <g>
          <polygon points="95.9 25.3 117.28 25.3 117.28 17.53 86.8 17.53 86.8 65.1 95.9 65.1 95.9 44.99 114.13 44.99 114.13 37.22 95.9 37.22 95.9 25.3"/>
          <path d="M55.52,17.53l-.13,.4-15.34,47.17h8.9l4.23-13.55h16.88l4.17,13.55h9.59l-15.35-47.57h-12.96Zm12.26,26.36h-12.18l6.18-17.42,6,17.42Z"/>
          <polygon points="28.3 18.11 28.31 20.66 28.31 55.05 13.4 17.53 .19 17.53 .19 65.1 9.06 65.1 8.96 48.25 8.96 27.73 23.89 65.1 37.04 65.1 37.04 17.53 28.3 17.53 28.3 18.11"/>
          <polygon points="144.03 34.7 144.03 34.7 144.03 34.69 144.03 34.7"/>
          <path d="M178.36,25.82c-.22-.38-.43-.61-.45-.64h0c-.98-1.07-2.01-2.1-3.12-3.06-.09-.08-.18-.15-.26-.22-.85-.8-2.17-1.87-3.91-2.74-1.74-.88-3.91-1.57-6.41-1.57-1.9,0-3.99,.39-6.23,1.38-2.2,.97-4.36,2.62-6.5,4.91-2.14,2.29-4.25,5.23-6.33,8.8-.4,.68-.77,1.36-1.13,2.01-2.63,4.77-6.26,11.69-9.85,17.39-1.8,2.85-3.58,5.4-5.21,7.21-.81,.9-1.58,1.62-2.28,2.1-.69,.48-1.3,.7-1.75,.7-.06,0-.12,0-.17-.01-.38-.05-.67-.17-.93-.35-.38-.28-.67-.72-.87-1.3-.2-.58-.3-1.29-.3-2.04,0-.42,.03-.85,.09-1.27,.11-.88,.46-2,.95-3.34,.49-1.34,1.11-2.89,1.77-4.64h0s8.45-22.74,8.45-22.74l4.54,12.56,6.05-8.45-4.61-13.08h-11.94l-9.83,26.26c-.95,2.54-1.86,4.71-2.55,6.74-.68,2.03-1.14,3.91-1.14,5.85,0,1.41,.24,2.83,.8,4.34,.03,.1,.28,.82,.93,1.72,.69,.94,1.84,2.09,3.65,2.88,1.39,.61,2.9,.8,4.36,.8,.05,0,.1,0,.14,0h0c1.27-.01,2.57-.22,3.78-.75,1.89-.83,3.34-2.33,4.52-3.9,.94-1.26,1.73-2.57,2.58-3.81,.17-.25,.42-.54,.63-.89,.18-.29,.33-.58,.5-.84,.75-1.2,1.48-2.41,2.19-3.64,.77-1.33,1.52-2.66,2.26-4.01,.24-.45,.48-.89,.72-1.34l6.93,18.41h9.36l-.9-2.42-10.28-27.4c1.48-2.68,3.31-5.61,5.39-8.16,2.14-2.62,4.54-4.81,7.03-5.91,1.92-.85,3.66-1.17,5.23-1.17,1.73,0,3.25,.4,4.55,.96,2.54,1.11,4.41,3.4,4.77,6.11,.02,.14,.03,.27,.04,.41,0,.07,.01,.14,.02,.2h0c.09,.77,.44,1.52,1.1,2.03,.32,.25,.76,.46,1.28,.46,.28,0,.57-.06,.85-.19,.29-.13,.57-.32,.85-.58,.38-.35,.65-.73,.82-1.11,.17-.38,.24-.76,.24-1.11,0-.66-.23-1.2-.44-1.58Z"/>
        </g>
      </g>
      <g>
        <path d="M375.47,27.2v-9.7h1.89v9.8c0,2.16,1.48,3.45,3.72,3.45,2.27,0,3.77-1.29,3.77-3.45v-9.8h1.86v9.7c0,3.3-2.24,5.29-5.63,5.29s-5.61-1.99-5.61-5.29"/>
        <path d="M389.91,21.66h1.8v2.01c.74-1.27,2.03-2.18,3.66-2.18,2.22,0,3.81,1.5,3.81,3.77v7.07h-1.8v-6.73c0-1.44-.91-2.48-2.41-2.48-1.99,0-3.26,1.72-3.26,4.53v4.68h-1.8v-10.67Z"/>
        <path d="M401.96,18.4c0-.72,.53-1.27,1.25-1.27s1.29,.55,1.29,1.27-.55,1.25-1.29,1.25-1.25-.55-1.25-1.25m.36,3.26h1.8v10.67h-1.8v-10.67Z"/>
        <polygon points="406.07 21.66 407.91 21.66 410.87 30.23 413.86 21.66 415.72 21.66 411.8 32.32 409.96 32.32 406.07 21.66"/>
        <path d="M426.92,27.33h-8.42c.13,2.16,1.48,3.58,3.41,3.58,1.63,0,2.75-.76,3.07-2.1l1.69,.4c-.53,2.07-2.31,3.28-4.76,3.28-3.2,0-5.21-2.48-5.21-5.5s1.95-5.5,5.16-5.5,5.1,2.27,5.1,5.02c0,.25-.02,.63-.04,.83m-1.86-1.5c-.17-1.63-1.31-2.84-3.2-2.84-1.67,0-2.9,1.06-3.26,2.84h6.46Z"/>
        <path d="M434.35,23.16c-1.69,0-3.07,1.63-3.07,5.1v4.06h-1.8v-10.67h1.8v2.16c.61-1.36,2.01-2.33,3.32-2.33,.45,0,.87,.06,1.23,.19l-.11,1.74c-.4-.17-.91-.25-1.38-.25"/>
        <path d="M436.64,29.38l1.54-.68c.4,1.25,1.25,2.27,2.9,2.27,1.31,0,2.16-.76,2.16-1.63,0-2.73-6.14-.98-6.14-5.02,0-1.69,1.46-2.84,3.75-2.84,1.88,0,3.51,1.06,3.96,2.62l-1.5,.66c-.3-1.1-1.36-1.8-2.5-1.8-1.2,0-1.97,.49-1.97,1.33,0,2.29,6.18,.61,6.16,5.02,0,1.86-1.57,3.18-3.92,3.18-2.58,0-3.98-1.61-4.45-3.11"/>
        <path d="M447.14,18.4c0-.72,.53-1.27,1.25-1.27s1.29,.55,1.29,1.27-.55,1.25-1.29,1.25-1.25-.55-1.25-1.25m.36,3.26h1.8v10.67h-1.8v-10.67Z"/>
        <path d="M456.43,32.49c-1.82,0-3.15-1.02-3.15-3.37v-5.88h-1.99v-1.59h1.99v-3.24h1.8v3.24h2.86v1.59h-2.86v5.95c0,1.12,.63,1.67,1.57,1.67,.42,0,.91-.07,1.33-.28l.13,1.65c-.53,.19-1.1,.25-1.67,.25"/>
        <polygon points="469.28 21.66 463.69 36.18 461.85 36.18 463.4 32.18 459.23 21.66 461.17 21.66 464.31 29.83 467.44 21.66 469.28 21.66"/>
        <path d="M375.2,67.69l1.82-.59c.29,2.07,1.88,3.43,3.85,3.43s3.34-.95,3.34-2.43c0-3.96-8.43-1.88-8.43-7.13,0-2.31,2.08-3.87,5-3.87,2.71,0,4.81,1.46,5.19,3.66l-1.76,.68c-.3-1.61-1.57-2.63-3.43-2.63s-3.05,.83-3.05,2.16c0,3.39,8.47,1.19,8.47,7.11,0,2.52-2.14,4.17-5.38,4.17-2.86,0-5.14-1.84-5.63-4.55"/>
        <path d="M388.31,58.14c0-.72,.53-1.27,1.25-1.27,.74,0,1.29,.55,1.29,1.27s-.55,1.25-1.29,1.25-1.25-.55-1.25-1.25m.36,3.26h1.8v10.67h-1.8v-10.67Z"/>
        <path d="M393.6,61.4h1.8v2.01c.74-1.27,2.03-2.18,3.66-2.18,2.22,0,3.81,1.5,3.81,3.77v7.07h-1.8v-6.73c0-1.44-.91-2.48-2.41-2.48-1.99,0-3.26,1.72-3.26,4.53v4.68h-1.8v-10.67Z"/>
        <path d="M415.66,61.4v10.16c0,2.69-2.03,4.53-4.97,4.53-2.48,0-4.4-1.31-4.72-3.24l1.74-.29c.1,1.19,1.36,2.01,2.98,2.01,1.89,0,3.2-1.14,3.2-2.81v-1.48c-.49,.91-1.89,1.52-3.41,1.52-3.28,0-5.08-2.27-5.08-5.27s1.8-5.29,5.04-5.29c1.42,0,2.81,.68,3.45,1.61v-1.44h1.78Zm-1.63,5.12c0-2.24-1.33-3.68-3.39-3.68s-3.41,1.44-3.41,3.68,1.33,3.66,3.41,3.66,3.39-1.44,3.39-3.66"/>
        <path d="M427.16,65.23v6.84h-1.78s0-1.82,0-1.82c-.61,1.23-2.01,1.99-3.56,1.99-2.14,0-3.6-1.31-3.6-3.15,0-2.05,1.67-3.18,5.08-3.51l2.07-.23v-.21c0-1.46-1.04-2.39-2.6-2.39-1.46,0-2.5,.87-2.65,2.31l-1.67-.32c.32-2.12,2.08-3.49,4.32-3.49,2.58,0,4.38,1.52,4.38,4m-1.78,2.01v-.51l-2.07,.23c-2.16,.23-3.28,.97-3.28,2.1,0,.99,.85,1.69,2.07,1.69,2.07,0,3.28-1.38,3.28-3.51"/>
        <path d="M430.29,61.4h1.8v1.55c.57-.97,1.97-1.72,3.51-1.72,3.28,0,5.1,2.37,5.1,5.5s-1.86,5.5-5.15,5.5c-1.35,0-2.75-.68-3.47-1.65v5.33h-1.8v-14.52Zm8.6,5.33c0-2.35-1.38-3.89-3.49-3.89s-3.45,1.54-3.45,3.89,1.37,3.89,3.45,3.89,3.49-1.54,3.49-3.89"/>
        <path d="M442.61,66.74c0-3.2,2.24-5.5,5.42-5.5,3.15,0,5.44,2.31,5.44,5.5s-2.29,5.5-5.44,5.5-5.42-2.31-5.42-5.5m9,0c0-2.29-1.44-3.89-3.58-3.89s-3.58,1.61-3.58,3.89,1.44,3.89,3.58,3.89,3.58-1.61,3.58-3.89"/>
        <path d="M460.86,62.91c-1.69,0-3.07,1.63-3.07,5.1v4.07h-1.8v-10.67h1.8v2.16c.61-1.36,2.01-2.33,3.32-2.33,.45,0,.87,.06,1.23,.19l-.11,1.74c-.4-.17-.91-.25-1.38-.25"/>
        <path d="M473.44,67.08h-8.42c.13,2.16,1.48,3.58,3.41,3.58,1.63,0,2.75-.76,3.07-2.1l1.69,.4c-.53,2.07-2.31,3.28-4.76,3.28-3.2,0-5.21-2.48-5.21-5.5s1.95-5.5,5.16-5.5,5.1,2.27,5.1,5.02c0,.25-.02,.63-.04,.83m-1.86-1.5c-.17-1.63-1.31-2.84-3.2-2.84-1.67,0-2.9,1.06-3.26,2.84h6.46Z"/>
        <path d="M313.01,28.22h-8.78l-18.99,53.74h9.56l4.46-12.28s4.19,2.32,9.36,2.32,9.36-2.32,9.36-2.32l4.46,12.28h9.56l-18.99-53.74Zm-4.39,35.65c-2.2,0-6.07-.77-8.01-2.58l8.01-22.34,8.01,22.34c-1.94,1.81-5.81,2.58-8.01,2.58"/>
        <path d="M345.04,24.9c-4.26,0-7.88,2.71-7.88,6.72,0,11.63,26.35,5.04,26.35,25.45,0,8.66-7.23,14.99-17.05,14.99-10.72,0-18.22-7.75-18.22-18.47h8.53c0,6.46,4.26,10.21,9.95,10.21,5.17,0,8.27-3.36,8.27-7.36,0-11.5-26.48-6.85-26.48-23.9,0-9.82,7.23-15.89,16.54-15.89,9.95,0,17.05,6.72,17.05,17.05h-8.53c0-5.43-4.26-8.78-8.53-8.78"/>
        <path d="M251.07,52.16V17.47h9.3V52.93c0,6.59,4,10.46,9.69,10.46s9.82-3.88,9.82-10.46V17.47h9.17V52.16c0,12.01-7.62,19.89-18.99,19.89-11.37,0-18.99-7.88-18.99-19.89"/>
        <path d="M397.03,48.3c0-3.2,2.24-5.5,5.42-5.5s5.44,2.31,5.44,5.5-2.29,5.5-5.44,5.5-5.42-2.31-5.42-5.5m9,0c0-2.29-1.44-3.89-3.58-3.89s-3.58,1.61-3.58,3.89,1.44,3.89,3.58,3.89,3.58-1.61,3.58-3.89"/>
        <path d="M411.17,44.56h-1.82v-1.59h1.82v-.99c0-2.35,1.33-3.6,3.15-3.6,.49,0,.99,.04,1.44,.17l-.08,1.61c-.38-.15-.76-.21-1.12-.21-.95,0-1.59,.74-1.59,1.88v1.14h2.73v1.59h-2.73v9.08h-1.8v-9.08Z"/>
        <path d="M427.38,53.81c-1.82,0-3.15-1.02-3.15-3.37v-5.88h-1.99v-1.59h1.99v-3.24h1.8v3.24h2.86v1.59h-2.86v5.95c0,1.12,.63,1.67,1.57,1.67,.42,0,.91-.07,1.33-.28l.13,1.65c-.53,.19-1.1,.25-1.67,.25"/>
        <path d="M431.56,38.65h1.8v6.41c.78-1.52,2.07-2.27,3.64-2.27,2.41,0,4,1.5,4,3.81v7.03h-1.8v-6.69c0-1.57-.97-2.52-2.6-2.52-1.97,0-3.24,1.78-3.24,4.64v4.57h-1.8v-14.99Z"/>
        <path d="M453.74,48.64h-8.42c.13,2.16,1.48,3.58,3.41,3.58,1.63,0,2.75-.76,3.07-2.1l1.69,.4c-.53,2.07-2.31,3.28-4.76,3.28-3.2,0-5.21-2.48-5.21-5.5s1.95-5.5,5.16-5.5,5.1,2.27,5.1,5.02c0,.25-.02,.63-.04,.83m-1.86-1.5c-.17-1.63-1.31-2.84-3.2-2.84-1.67,0-2.9,1.06-3.26,2.84h6.46Z"/>
        <path d="M470.38,49.87h-6.58l-1.46,3.77h-1.99l5.86-14.82h1.76l5.89,14.82h-2.01l-1.46-3.77Zm-.66-1.71l-2.62-6.8-2.65,6.8h5.27Z"/>
        <path d="M480.59,44.47c-1.69,0-3.07,1.63-3.07,5.1v4.06h-1.8v-10.67h1.8v2.16c.61-1.36,2.01-2.33,3.32-2.33,.45,0,.87,.06,1.23,.19l-.11,1.74c-.4-.17-.91-.25-1.38-.25"/>
        <path d="M488.38,53.81c-1.82,0-3.15-1.02-3.15-3.37v-5.88h-1.99v-1.59h1.99v-3.24h1.8v3.24h2.86v1.59h-2.86v5.95c0,1.12,.63,1.67,1.57,1.67,.42,0,.91-.07,1.33-.28l.13,1.65c-.53,.19-1.1,.25-1.67,.25"/>
        <path d="M491.64,50.7l1.54-.68c.4,1.25,1.25,2.27,2.9,2.27,1.31,0,2.16-.76,2.16-1.63,0-2.73-6.14-.98-6.14-5.02,0-1.69,1.46-2.84,3.75-2.84,1.88,0,3.51,1.06,3.96,2.62l-1.5,.66c-.3-1.1-1.36-1.8-2.5-1.8-1.2,0-1.97,.49-1.97,1.33,0,2.29,6.18,.61,6.16,5.02,0,1.86-1.57,3.18-3.92,3.18-2.58,0-3.98-1.61-4.45-3.11"/>
      </g>
      <rect x="212.72" y="0" width=".69" height="98.59"/>
    </g>
  </g>
</svg>